<svg xmlns="http://www.w3.org/2000/svg" viewBox="0 0 342.69 264.39"><defs><style>.cls-1{isolation:isolate;}.cls-2{fill:#eae6ff;}.cls-3{fill:#cdccff;}.cls-4{fill:#d7d7ff;}.cls-5{fill:#bdc6f9;}.cls-6{fill:#8784ef;}.cls-7{fill:#9aa3f4;}.cls-40,.cls-47,.cls-8{fill:none;}.cls-8{stroke:#9aa3f4;stroke-width:1.5px;}.cls-47,.cls-8{stroke-miterlimit:10;}.cls-9{fill:#4a41a3;}.cls-10,.cls-26{fill:#5851bc;}.cls-11,.cls-24{fill:#c4c3fc;}.cls-12,.cls-26,.cls-27{opacity:0.35;}.cls-13,.cls-50{fill:#fff;}.cls-14,.cls-44{opacity:0.25;}.cls-14,.cls-17,.cls-19,.cls-24,.cls-26,.cls-27,.cls-44{mix-blend-mode:multiply;}.cls-15{fill:#fca70c;}.cls-16{fill:#b1affd;}.cls-17{opacity:0.15;}.cls-18{opacity:0.26;}.cls-19{opacity:0.62;}.cls-20{fill:#d5dbda;}.cls-21{fill:#efefef;}.cls-22{fill:#7a7ae5;}.cls-23{fill:#cfcfff;}.cls-24{opacity:0.55;}.cls-25{fill:#a4a4f7;}.cls-28{fill:#a2a7f4;}.cls-29{fill:#9090f4;}.cls-30,.cls-47,.cls-50{opacity:0.45;}.cls-31{fill:#e2deff;}.cls-32{fill:#f9c110;}.cls-33{fill:#5045af;}.cls-34{fill:#ffb9b0;}.cls-35{fill:#7762ef;}.cls-36{fill:#5146af;}.cls-37{fill:#8484ef;}.cls-38{fill:#c4c4f7;}.cls-39{fill:#bbbbf2;}.cls-40{stroke:#c4c4f7;stroke-linecap:round;stroke-linejoin:round;stroke-width:0.75px;}.cls-41{fill:#ed9c80;}.cls-42{fill:#38287c;}.cls-43{fill:#453087;}.cls-44,.cls-46{fill:#ce4a30;}.cls-45{fill:#7a74d1;}.cls-47{stroke:#a4a4f7;}.cls-48{fill:#483a99;}.cls-49{fill:#d5d2ff;}.cls-51{fill:#a9adff;}.cls-52{fill:#f2a181;}.cls-53{fill:#5e5dbb;}.cls-54{fill:#b4b4db;}.cls-55{fill:#6960c4;}.cls-56{fill:#170d54;}.cls-57{fill:#ffbe9d;}.cls-58{fill:#3b2e7a;}.cls-59{fill:#e9e6ff;}.cls-60{fill:#e0d9ff;}.cls-61{opacity:0.3;}.cls-62{fill:#3939d3;}.cls-63{fill:#fefefe;}</style></defs><title>Asset 1</title><g class="cls-1"><g id="Layer_2" data-name="Layer 2"><g id="OBJECTS"><path class="cls-2" d="M339.9,158.21C334,141.67,324.64,136.64,315.76,126c-10.85-13-18.17-22.36-15.35-39C305,59.8,307-8.08,234.92.79c-25.82,3.18-46.23,23-61.08,42.73-12.63,16.81-35.36,18.3-53.65,22.21C97.71,70.55,74.82,77.82,54,88.48,11.2,110.43-1.59,142,.15,182.36c.53,12.2,2.26,31.41,22.86,53.89,27.81,30.35,68.23,34.41,116.87,20.48,11.13-3.19,21.65-8.2,32.61-12a153.58,153.58,0,0,1,35.19-7.65c27.94-2.7,56.9,2.19,83.7-6.15a88.26,88.26,0,0,0,37.43-23.22C341.61,194.35,346.16,175.65,339.9,158.21Z"/><path class="cls-3" d="M23,220.48c0,4,50.6,7.22,113,7.22s113-3.23,113-7.22-50.59-7.22-113-7.22S23,216.49,23,220.48Z"/><path class="cls-3" d="M92,229.4c0,2.49-12.85,4.52-28.69,4.52s-28.69-2-28.69-4.52,12.84-4.52,28.69-4.52S92,226.9,92,229.4Z"/><ellipse class="cls-3" cx="282.83" cy="230.34" rx="48.14" ry="3.58"/><polygon class="cls-4" points="34.3 170.88 32.45 196.76 57.14 196.76 55.44 170.83 34.3 170.88"/><path class="cls-2" d="M39.2,173.15h0a.79.79,0,0,1,.84-.72h0a.73.73,0,1,1,0,1.44h0A.79.79,0,0,1,39.2,173.15Zm.84-.44a.52.52,0,0,0-.57.44.52.52,0,0,0,.57.44h0a.53.53,0,0,0,.58-.44c0-.25-.26-.44-.58-.44Zm-.71.44Z"/><path class="cls-2" d="M47.61,173.13h0a.65.65,0,0,1,.2-.46.93.93,0,0,1,.65-.26h0a.79.79,0,0,1,.85.72.63.63,0,0,1-.26.51.92.92,0,0,1-.59.21h0A.8.8,0,0,1,47.61,173.13Zm.85-.44a.63.63,0,0,0-.45.17.38.38,0,0,0-.12.27h0a.52.52,0,0,0,.57.44h0a.66.66,0,0,0,.42-.14.39.39,0,0,0,.16-.3.53.53,0,0,0-.58-.44Z"/><path class="cls-2" d="M44,178.36h.24a4.54,4.54,0,0,0,3.51-1.48,5.21,5.21,0,0,0,1-3.78.27.27,0,0,0-.31-.23.27.27,0,0,0-.23.31,4.8,4.8,0,0,1-.86,3.35,4,4,0,0,1-3.11,1.29,3.67,3.67,0,0,1-3-1.05,5,5,0,0,1-.91-3.57.27.27,0,0,0-.23-.31.28.28,0,0,0-.31.23,5.5,5.5,0,0,0,1,4A4.09,4.09,0,0,0,44,178.36Z"/><polygon class="cls-5" points="45.91 178.13 42.96 197.38 69.77 197.32 67.06 178.08 45.91 178.13"/><path class="cls-6" d="M36,210.63a5.44,5.44,0,1,0,5.44,5.44A5.45,5.45,0,0,0,36,210.63Zm0,8a2.53,2.53,0,1,1,2.54-2.53A2.52,2.52,0,0,1,36,218.6Z"/><path class="cls-7" d="M35.09,210.63a5.44,5.44,0,1,0,5.44,5.44A5.44,5.44,0,0,0,35.09,210.63Zm0,8a2.53,2.53,0,1,1,2.53-2.53A2.53,2.53,0,0,1,35.09,218.6Z"/><path class="cls-6" d="M66.71,210.63a5.44,5.44,0,1,0,5.43,5.44A5.44,5.44,0,0,0,66.71,210.63Zm0,8a2.53,2.53,0,1,1,2.53-2.53A2.53,2.53,0,0,1,66.71,218.6Z"/><path class="cls-7" d="M65.81,210.63a5.44,5.44,0,1,0,5.44,5.44A5.45,5.45,0,0,0,65.81,210.63Zm0,8a2.53,2.53,0,1,1,2.54-2.53A2.52,2.52,0,0,1,65.81,218.6Z"/><path class="cls-8" d="M107.75,149.59H91.41a5,5,0,0,0-4.23,2.35l-9.87,15.85"/><path class="cls-8" d="M33.41,196.94H69.92a4,4,0,0,0,3.91-3.33L77.61,170a4,4,0,0,0-3.91-4.59H29.63A4,4,0,0,0,25.72,170l3.78,23.57A4,4,0,0,0,33.41,196.94Z"/><line class="cls-8" x1="51.66" y1="165.45" x2="51.66" y2="196.94"/><line class="cls-8" x1="75.82" y1="181.2" x2="27.51" y2="181.2"/><line class="cls-8" x1="66.08" y1="165.45" x2="62.96" y2="196.94"/><line class="cls-8" x1="37.96" y1="165.45" x2="40.85" y2="196.94"/><path class="cls-8" d="M73,195.51l5.91,8.79a3.6,3.6,0,0,1-3,5.62H27.51"/><rect class="cls-9" x="150.03" y="199.68" width="50.09" height="13.47"/><rect class="cls-10" x="88.52" y="79.16" width="173.64" height="124.92" rx="9.39"/><rect class="cls-11" x="93.37" y="83.72" width="163.41" height="108.38" rx="5.77"/><path class="cls-10" d="M135.82,212h78.5a7.32,7.32,0,0,1,7.32,7.32v1.17a0,0,0,0,1,0,0H128.5a0,0,0,0,1,0,0v-1.17A7.32,7.32,0,0,1,135.82,212Z"/><g class="cls-12"><rect class="cls-13" x="132.39" y="91.2" width="114.34" height="76.85" rx="5.01"/></g><g class="cls-14"><rect class="cls-15" x="143.26" y="147.35" width="4.98" height="12.5"/><rect class="cls-16" x="154.48" y="136.37" width="4.98" height="23.48"/><rect class="cls-15" x="165.71" y="138.8" width="4.98" height="21.05"/><rect class="cls-16" x="176.93" y="126.91" width="4.98" height="32.94"/><g class="cls-17"><rect class="cls-18" x="154.48" y="136.37" width="2.29" height="23.48"/></g><g class="cls-17"><rect class="cls-18" x="143.26" y="147.35" width="2.29" height="12.5"/></g><g class="cls-19"><rect class="cls-18" x="176.93" y="126.91" width="2.29" height="32.94"/></g><g class="cls-17"><rect class="cls-18" x="165.71" y="138.8" width="2.29" height="21.05"/></g><polygon class="cls-20" points="184.55 163.29 139.97 163.29 139.97 115.83 140.65 115.83 140.65 162.61 184.55 162.61 184.55 163.29"/><polygon class="cls-20" points="144.55 141.49 144.1 140.98 155.76 130.51 166.56 132.86 178.25 119.84 178.76 120.3 166.8 133.61 155.95 131.25 144.55 141.49"/><polygon class="cls-20" points="179.67 122.22 176.38 119.06 180.63 117.92 179.67 122.22"/><rect class="cls-16" x="188.77" y="146.46" width="3.42" height="3.42"/><rect class="cls-15" x="188.77" y="152.45" width="3.42" height="3.42"/><rect class="cls-21" x="193.13" y="153.93" width="10.84" height="1.94"/><rect class="cls-21" x="193.13" y="147.94" width="10.84" height="1.94"/><rect class="cls-16" x="208.88" y="146.46" width="3.42" height="3.42"/><rect class="cls-15" x="208.88" y="152.45" width="3.42" height="3.42"/><rect class="cls-21" x="213.24" y="153.93" width="10.84" height="1.94"/><rect class="cls-21" x="213.24" y="147.94" width="10.84" height="1.94"/><rect class="cls-16" x="226.99" y="146.46" width="3.42" height="3.42"/><rect class="cls-15" x="226.99" y="152.45" width="3.42" height="3.42"/><rect class="cls-21" x="231.36" y="153.93" width="7.13" height="1.94"/><rect class="cls-21" x="231.36" y="147.94" width="7.13" height="1.94"/><rect class="cls-21" x="189.41" y="113.78" width="49.08" height="0.89"/><rect class="cls-21" x="139.97" y="102.83" width="98.52" height="2.04"/><rect class="cls-21" x="189.26" y="116.55" width="49.23" height="0.89"/><rect class="cls-21" x="189.26" y="111" width="49.23" height="0.89"/><rect class="cls-21" x="189.26" y="119.33" width="49.23" height="0.89"/><rect class="cls-21" x="189.26" y="122.11" width="49.23" height="0.89"/><rect class="cls-21" x="189.26" y="124.88" width="49.23" height="0.89"/><rect class="cls-21" x="189.26" y="127.66" width="49.23" height="0.89"/><rect class="cls-21" x="189.26" y="130.43" width="49.23" height="0.89"/><rect class="cls-21" x="189.26" y="133.21" width="49.23" height="0.89"/><rect class="cls-21" x="195.29" y="135.98" width="43.2" height="0.89"/><path class="cls-22" d="M241.72,91.2H137.4a5,5,0,0,0-5,5v4.39H246.73V96.21A5,5,0,0,0,241.72,91.2Z"/><path class="cls-23" d="M232,96.07a1.45,1.45,0,1,1-1.45-1.44A1.45,1.45,0,0,1,232,96.07Z"/><circle class="cls-23" cx="236.47" cy="96.07" r="1.44"/><circle class="cls-23" cx="242.36" cy="96.07" r="1.44"/></g><rect class="cls-24" x="102.02" y="108.2" width="114.34" height="76.85" rx="5.01"/><rect class="cls-13" x="104.34" y="105.21" width="114.34" height="76.85" rx="5.01"/><rect class="cls-15" x="115.21" y="161.35" width="4.98" height="12.5"/><rect class="cls-16" x="126.43" y="150.38" width="4.98" height="23.48"/><rect class="cls-15" x="137.65" y="152.8" width="4.98" height="21.05"/><rect class="cls-16" x="148.88" y="140.92" width="4.98" height="32.94"/><g class="cls-17"><rect class="cls-18" x="126.43" y="150.38" width="2.29" height="23.48"/></g><g class="cls-17"><rect class="cls-18" x="115.21" y="161.35" width="2.29" height="12.5"/></g><g class="cls-19"><rect class="cls-18" x="148.88" y="140.92" width="2.29" height="32.94"/></g><g class="cls-17"><rect class="cls-18" x="137.65" y="152.8" width="2.29" height="21.05"/></g><polygon class="cls-20" points="156.49 177.3 111.92 177.3 111.92 134.07 112.6 134.07 112.6 176.62 156.49 176.62 156.49 177.3"/><polygon class="cls-20" points="116.5 155.5 116.04 154.99 127.7 144.52 138.5 146.87 150.2 133.85 150.71 134.3 138.75 147.62 127.9 145.26 116.5 155.5"/><polygon class="cls-20" points="151.62 136.23 148.32 133.06 152.58 131.93 151.62 136.23"/><rect class="cls-16" x="160.71" y="160.47" width="3.42" height="3.42"/><rect class="cls-15" x="160.71" y="166.46" width="3.42" height="3.42"/><rect class="cls-21" x="165.08" y="167.94" width="10.84" height="1.94"/><rect class="cls-21" x="165.08" y="161.94" width="10.84" height="1.94"/><rect class="cls-16" x="180.83" y="160.47" width="3.42" height="3.42"/><rect class="cls-15" x="180.83" y="166.46" width="3.42" height="3.42"/><rect class="cls-21" x="185.19" y="167.94" width="10.84" height="1.94"/><rect class="cls-21" x="185.19" y="161.94" width="10.84" height="1.94"/><rect class="cls-16" x="198.94" y="160.47" width="3.42" height="3.42"/><rect class="cls-15" x="198.94" y="166.46" width="3.42" height="3.42"/><rect class="cls-21" x="203.3" y="167.94" width="7.13" height="1.94"/><rect class="cls-21" x="203.3" y="161.94" width="7.13" height="1.94"/><rect class="cls-21" x="161.35" y="127.79" width="49.08" height="0.89"/><rect class="cls-21" x="111.92" y="116.83" width="98.52" height="2.04"/><rect class="cls-21" x="161.21" y="130.56" width="49.23" height="0.89"/><rect class="cls-21" x="161.21" y="125.01" width="49.23" height="0.89"/><rect class="cls-21" x="161.21" y="133.34" width="49.23" height="0.89"/><rect class="cls-21" x="161.21" y="136.11" width="49.23" height="0.89"/><rect class="cls-21" x="161.21" y="138.89" width="49.23" height="0.89"/><rect class="cls-21" x="161.21" y="141.66" width="49.23" height="0.89"/><rect class="cls-21" x="161.21" y="144.44" width="49.23" height="0.89"/><rect class="cls-21" x="161.21" y="147.21" width="49.23" height="0.89"/><rect class="cls-21" x="167.23" y="149.99" width="43.2" height="0.89"/><path class="cls-25" d="M213.67,105.21H109.35a5,5,0,0,0-5,5v4.39H218.68v-4.39A5,5,0,0,0,213.67,105.21Z"/><path class="cls-23" d="M204,110.08a1.45,1.45,0,1,1-1.44-1.44A1.44,1.44,0,0,1,204,110.08Z"/><path class="cls-23" d="M209.86,110.08a1.45,1.45,0,1,1-1.44-1.44A1.45,1.45,0,0,1,209.86,110.08Z"/><path class="cls-23" d="M215.75,110.08a1.45,1.45,0,1,1-1.45-1.44A1.45,1.45,0,0,1,215.75,110.08Z"/><path class="cls-26" d="M252.26,79.25H225.48q.28,13,.45,26.05a10.38,10.38,0,0,1-.49,3.93h0c-.35,0-.2.1-.32.73a0,0,0,0,1,0,0c-1.08,1.77-3.19,2.73-5.25,3.19a.56.56,0,0,0,0,.29.64.64,0,0,0-.2.81c.12.29,1.66.68,3.75.45a9.86,9.86,0,0,0,2.32-.64,3.63,3.63,0,0,0,.85-.58,2.94,2.94,0,0,0,.79-.19l.08.08,2.4-1s-.26-1.52-.47-2.3a1.42,1.42,0,0,0-.16-.37A109.14,109.14,0,0,0,233.91,93c-.43,7-3,21.38-3.16,21.87a3.67,3.67,0,0,1-3,2.14c-.57,0-3.36-.11-3.06,1.17.08.3,1.52,1,3.62,1.1a10.18,10.18,0,0,0,2.4-.23,4.53,4.53,0,0,0,1.49-.81l.32.43L235,118s0-.66,0-1.45a3.17,3.17,0,0,0-.54-1.55l0-1.45,1.41-.16s2.83-9.15,4.17-12.26a26.46,26.46,0,0,0,1.52-3.9,27.35,27.35,0,0,0,.59-4.87,42.61,42.61,0,0,1,1.63-8.81,1.33,1.33,0,0,1,.24-.51,1.35,1.35,0,0,1,.93-.32c3.6-.33,5.25.28,7.5-.42,3-.92,3.28-2.27,3.43-2.33A9.26,9.26,0,0,0,252.26,79.25Z"/><g class="cls-27"><path class="cls-10" d="M262.16,139.18V108.13c-4.63,6.06-9.22,11.5-13.85,17.56-2,2.63-9.88,11.34-4.51,14.84,1.37.89,3.76.85,4.95.93,4.28.3,8.53-.88,12.69-2.06Z"/></g><path class="cls-26" d="M262.16,145.86l-2.58.2-.05-.15-2,.16-.6-1.71a2.58,2.58,0,0,0-2.53-1.6,1.38,1.38,0,0,0-1.28,1.91c.1.3.4,1.13.6,1.69l-2.11.17,0,.14-4.35.34c-.68,0-1.7.89-1.48,1.51l0,.09a.78.78,0,0,0,0,.16l3.76,10.62-.1,44.69h4.37l8.26-32.1Zm-6.79-.33a1.46,1.46,0,0,1-1.42-.9.78.78,0,0,1,.72-1.08,1.47,1.47,0,0,1,1.42.9A.78.78,0,0,1,255.37,145.53Z"/><path class="cls-26" d="M99.43,127.44a22.45,22.45,0,0,0-2.58,4.34,4.28,4.28,0,0,1-2.41,2.16c-1.91.88-4,1.71-5.92,2.49v5.07c4-2.41,7.62-4.65,7.68-4.67,3.06,1.16,5.62-1.38,6.44-3.21.36-.82-.19-1.16-.21-1.55,0-.2.25-1.39.21-1.55-.24-1.07-3.12-.13-2.88-.64a3.71,3.71,0,0,1,1.2-1.8c1.41-1,2.49-2,2.48-2.43C103.44,125,99.77,127.08,99.43,127.44Z"/><rect class="cls-28" x="254.34" y="153.22" width="67.51" height="78.07" rx="6.95"/><rect class="cls-29" x="260.58" y="161.39" width="57.09" height="16.04" rx="1.77"/><rect class="cls-29" x="260.58" y="183.11" width="14.68" height="10.18" rx="1.77"/><rect class="cls-29" x="281.79" y="183.11" width="14.68" height="10.18" rx="1.77"/><rect class="cls-29" x="303" y="183.11" width="14.68" height="10.18" rx="1.77"/><rect class="cls-29" x="260.58" y="199.47" width="14.68" height="10.18" rx="1.77"/><rect class="cls-29" x="281.79" y="199.47" width="14.68" height="10.18" rx="1.77"/><rect class="cls-29" x="260.58" y="215.84" width="14.68" height="10.18" rx="1.77"/><rect class="cls-29" x="281.79" y="215.84" width="14.68" height="10.18" rx="1.77"/><rect class="cls-29" x="303" y="199.47" width="14.68" height="26.54" rx="1.77"/><g class="cls-30"><path class="cls-31" d="M259.55,162.12a1.77,1.77,0,0,1,1.77-1.77h53.55a1.77,1.77,0,0,1,1.77,1.77v12.49a1.77,1.77,0,0,1-1.77,1.77H261.32"/><rect class="cls-31" x="259.55" y="182.07" width="14.68" height="10.18" rx="1.77"/><rect class="cls-31" x="280.75" y="182.07" width="14.68" height="10.18" rx="1.77"/><rect class="cls-31" x="301.96" y="182.07" width="14.68" height="10.18" rx="1.77"/><rect class="cls-31" x="259.55" y="198.43" width="14.68" height="10.18" rx="1.77"/><rect class="cls-31" x="280.75" y="198.43" width="14.68" height="10.18" rx="1.77"/><rect class="cls-31" x="259.55" y="214.8" width="14.68" height="10.18" rx="1.77"/><rect class="cls-31" x="280.75" y="214.8" width="14.68" height="10.18" rx="1.77"/></g><rect class="cls-15" x="301.96" y="198.43" width="14.68" height="26.54" rx="1.77"/><path class="cls-32" d="M303,224.24v-23a1.78,1.78,0,0,1,1.77-1.78h11.14a1.79,1.79,0,0,1,.61.12,1.77,1.77,0,0,0-1.65-1.16H303.73a1.78,1.78,0,0,0-1.77,1.78v23a1.76,1.76,0,0,0,1.15,1.66A1.8,1.8,0,0,1,303,224.24Z"/><path class="cls-26" d="M254.34,171.63l1.81,4.75h7.57s-.53,20.58-.56,24.44,3.17,30.47,3.17,30.47h4.38l-.45-33.55,6.21-17.22s4.68,23,6.61,26.9,12.35,23.87,12.35,23.87h4l-10.33-44.13-4.43-15.33-22.34-10.44-8,.79"/><polygon class="cls-15" points="103.18 188.72 99.66 225.27 134.31 225.27 130.96 188.66 103.18 188.72"/><path class="cls-10" d="M109.23,192.07h0a1.21,1.21,0,0,1,1.29-1.1h0a1.22,1.22,0,0,1,1.3,1.09,1.21,1.21,0,0,1-1.3,1.1h0A1.21,1.21,0,0,1,109.23,192.07Zm1.29-.69a.8.8,0,0,0-.87.69.79.79,0,0,0,.88.67h0a.7.7,0,1,0,0-1.36Zm-1.09.69h0Z"/><path class="cls-10" d="M122.14,192h0a1,1,0,0,1,.31-.71,1.38,1.38,0,0,1,1-.39h0a1.21,1.21,0,0,1,1.3,1.09,1,1,0,0,1-.39.79,1.4,1.4,0,0,1-.9.31h0A1.22,1.22,0,0,1,122.14,192Zm1.3-.68a1,1,0,0,0-.69.26.59.59,0,0,0-.19.42h0a.8.8,0,0,0,.88.67h0a1,1,0,0,0,.63-.21.59.59,0,0,0,.24-.47.79.79,0,0,0-.88-.67Z"/><path class="cls-10" d="M116.6,200.05H117a7,7,0,0,0,5.38-2.27,8.08,8.08,0,0,0,1.51-5.8.42.42,0,0,0-.47-.36.42.42,0,0,0-.36.47,7.31,7.31,0,0,1-1.33,5.15,6.14,6.14,0,0,1-4.76,2,5.61,5.61,0,0,1-4.6-1.61c-1.85-2.06-1.4-5.44-1.39-5.48a.42.42,0,0,0-.83-.12c0,.16-.52,3.8,1.59,6.16A6.24,6.24,0,0,0,116.6,200.05Z"/><path class="cls-33" d="M69.11,106.37c1.34,2.31.18,5.48,1.54,7.79.54.92,1.46,1.65,1.72,2.69A2.35,2.35,0,0,1,69,119.49a3.16,3.16,0,0,0-.52-.26c-.67-.19-1.27.4-1.85.79a2.79,2.79,0,0,1-2.43.43,3.6,3.6,0,0,1-2-2.43c-1-2.91-.28-6.09.61-9,.45-1.46,1.11-3.09,2.55-3.62"/><path class="cls-34" d="M100.26,131c0,.32.52.6.19,1.28-.73,1.51-3,3.6-5.71,2.64-.12,0-15,8.64-16.14,8.64S69.65,136.18,67.1,127c-.61-2.18-.38-4.74,1.67-5.85a4.88,4.88,0,0,1,2.81,2.5c1.69,3.2,6.75,13.77,7.87,14.17,1.4-.94,8.21-3,13.73-5.3a3.76,3.76,0,0,0,2.14-1.79,17.6,17.6,0,0,1,2.29-3.57c.29-.31,3.56-2,3.56-1.48,0,.33-1,1.21-2.21,2a3,3,0,0,0-1.06,1.48c-.21.42,2.34-.35,2.55.53C100.49,129.86,100.25,130.84,100.26,131Z"/><path class="cls-35" d="M68.17,120.93a6.7,6.7,0,0,1,4.44,3.44,14.28,14.28,0,0,1,.61,1.39c.79,2,1.88,3.84,2.67,5.85a11.68,11.68,0,0,1-3.49,1.69,7.4,7.4,0,0,1-3.26.44,1.69,1.69,0,0,1-.55-.12,1.91,1.91,0,0,1-.57-.49c-.34-.39-.67-.79-1-1.19a3.27,3.27,0,0,1-.66-1.14,3.46,3.46,0,0,1,.15-1.77"/><g class="cls-27"><path class="cls-35" d="M70.12,126.43a.68.68,0,0,0-.26-.22.47.47,0,0,0-.53.24,1.11,1.11,0,0,0-.11.62,8.2,8.2,0,0,0,.38,2.41l-.26,4.26h0a7.37,7.37,0,0,0,3.05-.44c.45-.17.95-.35,1.45-.55C73.34,130.35,71.71,128.33,70.12,126.43Z"/></g><path class="cls-34" d="M63.53,116.7s-.06,2.67.35,2.84a9.77,9.77,0,0,0,1.72.53l0,5.51-7.34-1.11-5.05-2.81s5.25-1.74,5.3-2.26-.29-3.47-.29-3.47"/><path class="cls-34" d="M52.24,196.41v0c-2,9.53-1.05,22.61-1.5,29.78.1,0,2.73.36,2.73.36s6.21-30.23,7.34-36a7.09,7.09,0,0,0,.14-1.13c.27-4.35-3.65-4.57-5.86-1a15.36,15.36,0,0,0-1,1.94c-.12.29-.24.57-.36.88h0a28.58,28.58,0,0,0-1,3l0,.11c-.09.31-.16.62-.24.93v.07C52.38,195.75,52.31,196.08,52.24,196.41Z"/><path class="cls-34" d="M64,162.22c-.08.79-.5,4.54-1,9-.43,3.72-.9,7.91-1.27,11.23-.28,2.5-.48,4.48-.56,5.42a12.61,12.61,0,0,1-.22,1.6v0c-1,4.35-4,4.6-5.78,3.59a4.4,4.4,0,0,1-.69-.47,2.31,2.31,0,0,1-.78-1.29h0c-.12-.89-.23-2.11-.34-3.56v-.07c-.22-2.83-.41-6.46-.58-10-.2-4.35-.32-8.54-.35-10.9,0-.14,0-.27,0-.39,0-7.25,6.63-11.9,10.77-9.65l.14.07.16.1c.47.31.63,1.4.64,2.64C64.13,160.41,64.07,161.4,64,162.22Z"/><path class="cls-34" d="M53.87,189.58l-.51-1.9v0a30.41,30.41,0,0,1-.63,6.63l0,.11c-.07.3-.15.62-.24.93v.07a5,5,0,0,0-.22,1v0c0,.86,1.83-3,2.25-3.86l.08-.18-.5-2Z"/><path class="cls-34" d="M68.22,198.23v0c-.19,10,2.89,21.7,3.71,28.95.1,0,2.51-.33,2.51-.33s.46-30.55.49-36.59a8.16,8.16,0,0,0-.06-1.15c-.49-4.4-4.06-3.65-5.44.48a18.35,18.35,0,0,0-.58,2.19l-.18,1h0q-.24,1.54-.36,3.27v.11c0,.33,0,.66-.06,1v.08Q68.23,197.71,68.22,198.23Z"/><path class="cls-34" d="M70.29,194.16a2.76,2.76,0,0,1-.7-.31,2,2,0,0,1-.91-1.08h0c-.26-.86-.58-2.06-.92-3.47v-.06c-.68-2.75-1.48-6.32-2.22-9.8-.92-4.27-1.75-8.41-2.17-10.76,0-.13-.4-1.84-.43-2-1.28-7.29,4.41-12,8.54-10.64l.16.05c.83.33,1.06,3.26,1.24,5.23s1.6,22.43,2,26.13a16.14,16.14,0,0,1,.07,1.66C74.78,193.7,72.11,194.71,70.29,194.16Z"/><path class="cls-34" d="M68.53,191l-.78-1.76v0a33.06,33.06,0,0,1,.56,6.75v.11c0,.32,0,.66-.06,1v.08a6.55,6.55,0,0,0,0,1v0c.14.86,1.14-3.4,1.37-4.4,0-.12,0-.19,0-.19l-.78-1.86Z"/><path class="cls-36" d="M55.86,148.22s-5.34,6.8-4.8,13.62c.23,2.84.59,5.35.91,8.21.05.41.69,6.41.51,6.42,0,0,11,3.4,21.66-1.06,0-.73.85-14.7-4.9-28A92.68,92.68,0,0,1,55.86,148.22Z"/><path class="cls-35" d="M72.61,132.54c0,1.94-1.08,3.13-2.56,4.77a57.87,57.87,0,0,0-.81,7.51c-.08,1.5.56,2.45,0,2.57-2.14,1.86-9.84,3.37-13.37.83.37-3.14-1-10.05-2-13.56-.14-.54-.27-1-.39-1.35-.89-2.67-2.48-11.23-1.3-11.6l1-.3c1.85-.56,4.58-1.52,4.58-1.52s1.6,4.74,5.76,5.31c2.27-.93,2.07-3.81,2-5.13.74.21,1.07.41,3.37,1.09.65.93.09,2.88,1.13,5.77C70.36,127.65,72.66,130.17,72.61,132.54Z"/><path class="cls-34" d="M68.84,105.83s.42,5.15-.46,7.85a6.4,6.4,0,0,1-5.55,3.83c-6.14,0-7.24-8.34-7.21-8.75s9.06-3.9,9.06-3.9Z"/><path class="cls-33" d="M80.54,230.08c-2.19.4-4.53-.22-5.48-.05-.8.13-2.83.65-3.59,0s-.64-3.1.24-3.43a3,3,0,0,0,.56.14,6.1,6.1,0,0,0,2.59-.21,14.36,14.36,0,0,0,3.62,1.37,11.79,11.79,0,0,1,2.41.73C81.71,229,81.77,229.86,80.54,230.08Z"/><path class="cls-33" d="M56.93,231.05c-2.19-.37-3.58-1.58-4.53-1.75-.8-.14-2.79-.53-3-1.35-.15-.6.45-3.13,1.38-3.14a3.68,3.68,0,0,0,.49.32,5.92,5.92,0,0,0,2.51.68,13.62,13.62,0,0,0,2.94,2.51,11.4,11.4,0,0,1,2,1.5C59.38,230.45,58.17,231.25,56.93,231.05Z"/><path class="cls-34" d="M25,128.87l2-2.4,12.28,11s6-8,7.64-10.47c1.81-2.74,3.45-5.08,6.1-5.54.61.38-.21,10.21-.53,10.45-3.7,2.77-10.91,11.71-13.2,12.18C36.65,144.6,25,128.87,25,128.87Z"/><path class="cls-35" d="M53.94,121s-2.51,0-3.59.92S44.12,131,44.12,131a3.63,3.63,0,0,0,1.35,2.83,7.47,7.47,0,0,0,3.71,1.61s2.59-2.57,4-3.74c.91-.73,1,1.07,1,1.07l4.56-4.45Z"/><path class="cls-33" d="M52.42,121.1c-.14-.07-.27-.15-.4-.23a3.41,3.41,0,0,1-1.65-1.66,5.53,5.53,0,0,1,0-4A15.28,15.28,0,0,1,52,113.24a6,6,0,0,0,1-3.36,22.06,22.06,0,0,1,.24-3.55c.42-2,1-3.87,2.51-5.14,2.45-2,7.36-3.26,10-1,.49.41.58.75,1.24.81a4.85,4.85,0,0,1,2.24.66c.87.5,1.94,1.21,1.81,2.36a4.06,4.06,0,0,1-1.67,2.43,1.88,1.88,0,0,1-.94.21c-1,0-1.9-.65-2.92-.54a1.91,1.91,0,0,0-1.28.71c-.37.45-.32,1.08-.75,1.51-.69.68-1.76.62-2.57,1.06a.84.84,0,0,0-.35.29.83.83,0,0,0-.09.44l0,1.29c-.41-.18-.45-.75-.78-1a.92.92,0,0,0-1.17.07,2,2,0,0,0-.57,1.12,3.3,3.3,0,0,0,.23,1.54c.27.88,1,1.67,1.62,1.09.44.65,0,1.73,0,2.46,0,.58,0,1.73.54,2.11s1.29.08,1.32,1A1.75,1.75,0,0,1,60,121.35a6.23,6.23,0,0,1-2.43-.42,3.77,3.77,0,0,0-2.43-.12,7.17,7.17,0,0,1-1.36.61A2.08,2.08,0,0,1,52.42,121.1Z"/><path class="cls-34" d="M30.11,129.26S27.23,127,27,126.31s-.24-1.31-.48-1.93a3.59,3.59,0,0,0-2-2c-.72-.3-.37-.54-1.14-.39-1.17.23-1.73,1.37-2.19,2.27-2,3.82,3.46,4.54,3.65,4.55.4,0,2.43,2.32,2.43,2.32"/><path class="cls-37" d="M21,127.42l2,1.32a.55.55,0,0,0,.77-.18l4.34-7.27-2.58-1.45-4.66,6.82A.55.55,0,0,0,21,127.42Z"/><path class="cls-38" d="M13.94,112l.68.46,2.75-4-.68-.47a2.31,2.31,0,0,0-3.13.81h0A2.28,2.28,0,0,0,13.94,112Z"/><polygon class="cls-38" points="11.43 116.87 24.08 118.79 26.96 114.58 20.58 103.52 11.43 116.87"/><polygon class="cls-39" points="12.23 117.04 24.08 118.79 25.23 117.11 15.26 112.63 12.23 117.04"/><path class="cls-38" d="M29.28,121.85h0a1.61,1.61,0,0,0,2.19-.57l.51-.75a1.6,1.6,0,0,0-.26-2.23h0a1.61,1.61,0,0,0-2.19.56l-.52.75A1.6,1.6,0,0,0,29.28,121.85Z"/><path class="cls-39" d="M29.53,118.86l-.51.75a1.59,1.59,0,0,0,.26,2.24,1.61,1.61,0,0,0,2.19-.57l.51-.75a1,1,0,0,0,.1-.17,1.47,1.47,0,1,1-2.42-1.66A1.83,1.83,0,0,0,29.53,118.86Z"/><path class="cls-25" d="M11,117.28h0A1,1,0,0,0,12.3,117L21,104.3a.93.93,0,0,0-.16-1.31h0a.94.94,0,0,0-1.28.33L10.86,116A.94.94,0,0,0,11,117.28Z"/><path class="cls-37" d="M21,103.23l-7.22,10.53a.94.94,0,0,1-1.29.33.73.73,0,0,1-.22-.24L10.86,116a.94.94,0,0,0,.15,1.31A1,1,0,0,0,12.3,117L21,104.3A1,1,0,0,0,21,103.23Z"/><path class="cls-25" d="M25.19,121l.82.56a2.88,2.88,0,0,0,3.91-1l.81-1.19a2.84,2.84,0,0,0-.47-4l-.82-.56a2.87,2.87,0,0,0-3.9,1L24.72,117A2.85,2.85,0,0,0,25.19,121Z"/><path class="cls-37" d="M24.77,116.94l-1.22,1.78A.9.9,0,0,0,23.7,120l3.81,2.6a.91.91,0,0,0,1.23-.32L30,120.48a.9.9,0,0,1-1.23.32l-3.81-2.59A.9.9,0,0,1,24.77,116.94Z"/><path class="cls-34" d="M21.42,125.59a4,4,0,0,1,.7-3,6.39,6.39,0,0,1,.71-.76,1,1,0,0,1,.43-.29,1.4,1.4,0,0,1,.92.21,1.69,1.69,0,0,1,.76.76,1,1,0,0,1-.56,1.2s-.09.06-.1.1a.39.39,0,0,0,.07.24,1.72,1.72,0,0,1,.29,1,.57.57,0,0,1-.68.5c-.15,0-.34-.08-.39,0s0,.08,0,.13a1.05,1.05,0,0,1-.23.83.28.28,0,0,1-.18.11.41.41,0,0,1-.19,0,3.13,3.13,0,0,1-.68-.3"/><path class="cls-34" d="M27,126.47a13.47,13.47,0,0,1-.23-1.55,3.54,3.54,0,0,0-1.67-2.9.41.41,0,0,0-.27-.08.29.29,0,0,0-.22.26.75.75,0,0,0,.05.36c.12.36.64,1,.48,1.43a4.2,4.2,0,0,0-.42,1.8c0,.55.28,1.44.93,1.53"/><line class="cls-40" x1="12.34" y1="97.4" x2="14.89" y2="103.41"/><line class="cls-40" x1="7.03" y1="102.74" x2="12.25" y2="106.65"/><line class="cls-40" x1="3.67" y1="110.01" x2="10.15" y2="110.65"/><path class="cls-34" d="M211.49,46.86s-2.33-1.64-2.41-2.33a16.3,16.3,0,0,0-2.23-4.05A12.59,12.59,0,0,0,203,38.9c-.59-.09-3.93.2-3.51.65s2.58.29,3,.54l.42.25s-.42.57-.25.91-.72.87-.38,1.45-.14.54.16,1.15c.49,1,1.75,1.56,2.08,1.29.25.59,1.21,1.8,2.1,1.72s3.08,2,3.08,2"/><path class="cls-34" d="M247,35.17c.07,1.56,0,4.29.41,4.69s1.9.34,1.9.34-5.17,6.54-5.64,6.18-6.57-5.34-5.2-5.6,2.72-.2,2.68-.91l-.12-2.14"/><path class="cls-15" d="M252.91,70.08s-10.09,1.14-12.41,1.19-2.2-1.16-2.2-1.16a92.78,92.78,0,0,0-1-10.62c-.44-1.91-.64-2.61-1-4.42-.87-4-.83-4.8-1.75-9.77l6-4.84a3.2,3.2,0,0,0,3.15,1.89A4.6,4.6,0,0,0,248.08,40l8.22,5.46.77,13.27-1,10.93"/><path class="cls-34" d="M247.13,33.75a17.24,17.24,0,0,1-.71,2.32A2.64,2.64,0,0,1,243.64,38l-3.09.07a3.57,3.57,0,0,1-2.42-.51c-.63-.55-.64-1.48-.78-2.24-.18-1-.33-2-.44-2.94a43.31,43.31,0,0,1-.27-5.81,3.52,3.52,0,0,1,.07-.79.49.49,0,0,1,.13-.29.61.61,0,0,1,.37-.15,31.73,31.73,0,0,1,5.84-.37A6.66,6.66,0,0,1,247,26a7.4,7.4,0,0,1,2.09,3.54c.07.21.13.49,0,.62"/><path class="cls-41" d="M224.5,106.06a21.61,21.61,0,0,0,.61,2.69c.26.69,2.51.06,2.66-.39a20.46,20.46,0,0,0-.71-3.7"/><path class="cls-42" d="M228.56,108.93c.19.74.44,2.16.44,2.16l-2.25,1-.37-.35a4.19,4.19,0,0,1-1.25,1,9.65,9.65,0,0,1-2.18.6c-2,.21-3.41-.16-3.52-.43-.49-1.14,2.12-1.44,2.63-1.58a3.45,3.45,0,0,0,2.47-2.47c.12-.6,0-.7.3-.68a.77.77,0,0,1,.56.26,1.43,1.43,0,0,0,1.6.37,1.67,1.67,0,0,0,.8-.66A1,1,0,0,1,228.56,108.93Z"/><path class="cls-43" d="M234.45,79.84a38.16,38.16,0,0,1-11.49.27c.5,1.42,1.72,3.25,2.18,5.25,1.53,6.63,2.07,15.53,2.45,21,0,0-.73,1.41-3.09.34C221,98,214.83,80.4,214.89,76.57c.07-4.87,12.22-6,21.13-7.24"/><path class="cls-42" d="M250,70.09c2.8,2-15.52,9.75-15.52,9.75a30.94,30.94,0,0,1-6,.57,4.3,4.3,0,0,1-.45-1.14c-.1-.53-.05-1.08-.14-1.62A3.74,3.74,0,0,0,226,75.19a8,8,0,0,0-3-1,40.12,40.12,0,0,0-6.8-.12c5.51-4.06,16.78-4.6,22-4.93C239.25,70.83,249.57,69.79,250,70.09Z"/><path class="cls-41" d="M230.31,110.69a23.18,23.18,0,0,0,.13,2.76c.14.72,2.47.48,2.69.07a20,20,0,0,0,0-3.77"/><path class="cls-42" d="M233.81,114.22c.06.76.06,2.2.06,2.2l-2.39.58-.3-.41a4.15,4.15,0,0,1-1.4.76,9,9,0,0,1-2.25.22c-2-.13-3.33-.75-3.4-1-.28-1.21,2.33-1.06,2.87-1.1a3.47,3.47,0,0,0,2.86-2c.21-.57.09-.7.41-.62a.82.82,0,0,1,.51.36,1.43,1.43,0,0,0,1.51.64,1.73,1.73,0,0,0,.9-.51A1,1,0,0,1,233.81,114.22Z"/><path class="cls-43" d="M256.08,69.68a112.72,112.72,0,0,1-12.41.4c-1.59,0-13.58,2.25-14.73,4.28-1.88,3.34,1.23,22.88.94,36.87,0,0,1.44,1.2,4,.07.63-6.87,4.69-23.08,1.89-30.65,6.61.88,11.94,1.75,18-.24a4.79,4.79,0,0,0,3.09-3.28C257.44,75.31,257.11,71.31,256.08,69.68Z"/><path class="cls-15" d="M240.5,40.46l-1.72.1a13.51,13.51,0,0,0-3.56.68c-1.64.6-2.79,2.12-4.12,3.31s-7.92,7.47-9.16,7.7S209.84,45,209.84,45l-2.66,2.65s11.8,10.9,15.31,10.92c1.71,0,11.13-5,14.14-6.88Z"/><path class="cls-44" d="M222.52,56.51c-2.42.14-13.53-8.34-14.82-9.33l-.52.51s11.8,10.9,15.31,10.92c1.43,0,8.2-3.43,12.16-5.7l1-.59-.62-3.67S225.1,56.37,222.52,56.51Z"/><path class="cls-25" d="M211.21,71.86h27l-4.84-15.78a2.07,2.07,0,0,0-2-1.46H207.74a1.34,1.34,0,0,0-1.29,1.74Z"/><path class="cls-45" d="M210.87,71.86h26.59l-4.84-15.78a2.08,2.08,0,0,0-2-1.46H207a1.35,1.35,0,0,0-1.29,1.74l4.64,15.11A.54.54,0,0,0,210.87,71.86Z"/><g class="cls-14"><path class="cls-46" d="M252.38,48.07a104.63,104.63,0,0,0-2,15.17c-4.72,1.83-6.64,4.56-11.26,6.61,0,0-3.64-.6-4,.77-.23.79,4.26,1.42,4.26,1.42,4.28,0,15.56-3.1,16.33-3.31s3-14.55,3.07-22.34a4.83,4.83,0,0,0-.72-3.16,4,4,0,0,0-1.39-1A19.48,19.48,0,0,0,248.08,40"/></g><path class="cls-34" d="M239.8,70.79a2.7,2.7,0,0,0-2.25-.71c-.6,0-1.2.06-1.8.14-.27,0-.59.11-.61.4s1.32,0,2,.2a36.48,36.48,0,0,1-4.18.12,1.11,1.11,0,0,0-.48,0,.39.39,0,0,0-.27.36.51.51,0,0,0,.19.32,2.83,2.83,0,0,0,1.44.58,11.05,11.05,0,0,0,6.34-.56"/><path class="cls-15" d="M252.08,48c-.11,6.5-.57,9.47-.44,16-3.26.7-7.77,4.39-12.39,6.45A2.45,2.45,0,0,0,239.4,72c.35.13,15.57-3.57,16.78-4.69s2.53-13.17,2.62-21a4.83,4.83,0,0,0-.72-3.16,4,4,0,0,0-1.39-1A19.48,19.48,0,0,0,248.08,40"/><path class="cls-47" d="M224.59,63.51c.1,1.38-1.54,2.51-3.65,2.51s-3.91-1.13-4-2.51,1.54-2.5,3.66-2.5S224.49,62.13,224.59,63.51Z"/><ellipse class="cls-25" cx="220.76" cy="63.51" rx="1.39" ry="2.43" transform="translate(148.7 281.63) rotate(-87.77)"/><path class="cls-48" d="M242.37,29.6c-.05-.25-.59-.29-1.13-.23a8.37,8.37,0,0,0-2.28.49c-.3.23-.28.39-.44.41s-.16-.14-.51-.3a4.56,4.56,0,0,0-1.72,0c-.54.07-1,.19-1,.43a1.4,1.4,0,0,0,.21.75c.11.07.11.06.54,1a1,1,0,0,0,1.3.71c.9-.2.95-1.21,1-1.64s.13-.48.27-.5.23,0,.4.42.29,1.3,1.21,1.35c1.19.07,1.71-.34,1.88-1.11.22-1,.17-1,.26-1.13a5,5,0,0,1,.89.07l0-.31A7.4,7.4,0,0,1,242.37,29.6ZM238,31.69a1,1,0,0,1-.88,1.09c-.54.07-.8-.22-1.09-.93a1.81,1.81,0,0,1-.18-1.26c.09-.17.39-.16,1.07-.21s.91-.05,1,.25A3.69,3.69,0,0,1,238,31.69Zm3.9-.57c-.11.75-.39,1.11-1.14,1.2-1.06.13-1.27-.29-1.43-.8a3.57,3.57,0,0,1-.19-1.05c0-.31.25-.36.92-.48s1.57-.28,1.7-.14A1.81,1.81,0,0,1,241.93,31.12Z"/><path class="cls-48" d="M249.59,27.94a10.29,10.29,0,0,0-.3-1.6,5.06,5.06,0,0,0-2.49-3.27,8,8,0,0,0-5.64-.56c-1,.29-1.42.83-1.95.81a5.76,5.76,0,0,1-1.45-.47c-4-1.45-3.36,2.5-2.93,3.58.19.48,1.11.83,1.23,1a13,13,0,0,1,.19,1.61.88.88,0,0,0,.5.6s0-1.28,0-1.45a1.65,1.65,0,0,1,.6-1.19,3.79,3.79,0,0,1,1.45-.41,11,11,0,0,1,3,.49c.76.65.95,2.13,1.16,3,.1.41.2.68.37.68.12-1.2.54-1.23,1.25-.82a2.07,2.07,0,0,1,.61,1.61,1.71,1.71,0,0,1-1.2,1.77c-.29.06.57,1.69,1,2.1a2.47,2.47,0,0,0,.42.37,2.6,2.6,0,0,0,.49.18l.57.15a1.57,1.57,0,0,0,.8.07c.42-.12.65-.57.84-1,.31-.65.68-1.29.94-2A11.75,11.75,0,0,0,249.59,27.94Z"/><path class="cls-49" d="M322.33,87.77H271.24l6.12-4.53V61.14a3.34,3.34,0,0,1,3.33-3.34h41.64a3.34,3.34,0,0,1,3.34,3.34V84.43A3.34,3.34,0,0,1,322.33,87.77Z"/><rect class="cls-50" x="297.88" y="62.11" width="23.35" height="2.23"/><rect class="cls-50" x="297.88" y="65.45" width="23.35" height="2.23"/><rect class="cls-50" x="297.88" y="68.79" width="23.35" height="2.23"/><rect class="cls-50" x="297.88" y="72.04" width="23.35" height="2.23"/><rect class="cls-50" x="297.88" y="75.93" width="16.29" height="2.23"/><rect class="cls-51" x="281.38" y="62.11" width="14.67" height="17.15" rx="3.39"/><rect class="cls-50" x="281.38" y="81.4" width="14.67" height="1.84"/><path class="cls-13" d="M290.16,73.24h-5.32a.65.65,0,0,1-.64-.49l-1-3.78a.67.67,0,0,1,.64-.84h7.37a.66.66,0,0,1,.64.84l-1,3.78A.66.66,0,0,1,290.16,73.24Z"/><path class="cls-13" d="M291.1,74.09h-6.41a.13.13,0,1,1,0-.26H291l2.23-7.78a.13.13,0,0,1,.13-.1h1.39a.13.13,0,0,1,.13.13.13.13,0,0,1-.13.14h-1.29L291.22,74A.12.12,0,0,1,291.1,74.09Z"/><path class="cls-13" d="M285.67,75.14a.78.78,0,0,1-.78.77.78.78,0,0,1,0-1.55A.78.78,0,0,1,285.67,75.14Z"/><circle class="cls-13" cx="290.53" cy="75.14" r="0.78"/><path class="cls-49" d="M132.51,56.9h65.1l-7.79-5.76V15.52a4.26,4.26,0,0,0-4.26-4.26H132.51a4.25,4.25,0,0,0-4.25,4.26V52.65A4.25,4.25,0,0,0,132.51,56.9Z"/><g class="cls-30"><rect class="cls-13" x="133.91" y="17.87" width="29.75" height="2.85" transform="translate(297.58 38.58) rotate(180)"/><rect class="cls-13" x="133.91" y="22.12" width="29.75" height="2.85" transform="translate(297.58 47.09) rotate(180)"/><rect class="cls-13" x="133.91" y="26.37" width="29.75" height="2.85" transform="translate(297.58 55.59) rotate(180)"/><rect class="cls-13" x="133.91" y="30.52" width="29.75" height="2.85" transform="translate(297.58 63.88) rotate(180)"/><rect class="cls-13" x="133.91" y="34.66" width="29.75" height="2.85" transform="translate(297.58 72.17) rotate(180)"/><rect class="cls-13" x="133.91" y="42.19" width="29.75" height="2.85" transform="translate(297.58 87.23) rotate(180)"/><rect class="cls-13" x="133.91" y="46.68" width="50.78" height="2.85" transform="translate(318.6 96.2) rotate(180)"/></g><rect class="cls-38" x="166" y="17.87" width="18.69" height="21.85" rx="4.31" transform="translate(350.69 57.59) rotate(180)"/><rect class="cls-50" x="166" y="42.44" width="18.69" height="2.35" transform="translate(350.69 87.23) rotate(180)"/><path class="cls-13" d="M173.5,32.05h6.79a.84.84,0,0,0,.81-.63l1.31-4.81a.85.85,0,0,0-.82-1.07H172.2a.85.85,0,0,0-.82,1.07l1.31,4.81A.84.84,0,0,0,173.5,32.05Z"/><path class="cls-13" d="M172.31,33.13h8.17a.17.17,0,0,0,.17-.17.17.17,0,0,0-.17-.16h-8l-2.85-9.92a.16.16,0,0,0-.16-.12h-1.78a.17.17,0,0,0,0,.34h1.65L172.15,33A.16.16,0,0,0,172.31,33.13Z"/><path class="cls-13" d="M179.23,34.46a1,1,0,1,0,1-1A1,1,0,0,0,179.23,34.46Z"/><path class="cls-13" d="M172,34.46a1,1,0,1,0,1-1A1,1,0,0,0,172,34.46Z"/><ellipse class="cls-2" cx="283.08" cy="241.37" rx="28.69" ry="3.02"/><path class="cls-7" d="M267.69,237.08a7.26,7.26,0,0,1-3,2.27c-1.59.71-5,1-3.1,1.67a11.24,11.24,0,0,0,5.19.07,22.48,22.48,0,0,1,3.5-.21c1.72,0,1.74-.12,1.51-2.07C271.46,236.13,268.46,235.56,267.69,237.08Z"/><path class="cls-7" d="M299,236.11c-.1.54.67,2.18-.7,3.38s-4.5,2.47-2.43,2.52a12,12,0,0,0,5.11-.95c1.05-.52.21-1.34,1.51-1.75,1.72-.54,1.37-1.81.47-2.59C301.83,234.14,299.32,234.35,299,236.11Z"/><path class="cls-9" d="M292.42,181.5s4.12-12.12-7.57-22.1c0,0-6.26,2.5-11.28,2.8a27.49,27.49,0,0,1-6-.13s-.33,10.76-.34,16.56Z"/><path class="cls-9" d="M266.32,201.61c-.23-5.41,5.65-4.7,7.81-.66,4.48,8.37-1.65,27.64-2.46,36.77a4.67,4.67,0,0,1-3.1.19,2.16,2.16,0,0,1-.9-1C267.8,225.72,266.56,207.41,266.32,201.61Z"/><path class="cls-9" d="M273.93,202.43c-.68,2.22-8.17,4.54-7.56-3.51.26-3.57,1-23.28,1.12-25.18s.46-4.68,1.38-5c4.59-1.73,12.71,4.28,11.5,11.41C279.57,184.89,275.33,197.85,273.93,202.43Z"/><path class="cls-9" d="M285.73,205.51c-1.82-5.11,4.07-6,7.41-2.87,7.82,7.37,8.12,24.74,10,33.7a6.81,6.81,0,0,1-3.42,1,1.21,1.21,0,0,1-.93-.47C295.65,226.11,287.66,211,285.73,205.51Z"/><path class="cls-9" d="M293.46,203.84c.2,2.3-6,7.06-8.5-.62-1.09-3.41-5.76-23.56-6.35-25.38s-.42-5.55.3-6.22c3.6-3.33,11.74-.4,13.3,6.67C293.26,183,293,199.07,293.46,203.84Z"/><path class="cls-52" d="M261.28,115.62c.21-.23.42-.45.61-.7,1.49-1.89,1.7-3.57,3.07-5.77a19,19,0,0,1,1-1.9,8,8,0,0,1,2.23-1.83c.64-.34.09,1.08.09,1.08s.54-.79,1.07-.74c.2,0,.24,1.23.24,1.44a10.07,10.07,0,0,1-1.12,4.78,2.61,2.61,0,0,0-.39,1.09,2.46,2.46,0,0,0,1.3-.64,1.54,1.54,0,0,1,1.35-.39,3.57,3.57,0,0,1-.26.56,5.89,5.89,0,0,1-2.37,2.8c-.67.32-1.45.38-2.1.73-1.19.63-1.76,2.09-3,2.68"/><rect class="cls-53" x="265.81" y="106.25" width="5.12" height="9.42" rx="0.65" transform="translate(63.6 -94.97) rotate(22.7)"/><rect class="cls-54" x="266.35" y="106.8" width="4.29" height="8.41" transform="translate(63.63 -95.01) rotate(22.7)"/><path class="cls-45" d="M272.1,123.28a28.07,28.07,0,0,0-5.72,1c-4.07,1.22-5.47,3.1-6.88,3.88,2.73-3.47,5.78-10.83,5.78-10.83s-3.68-3-4.1-2.3-15.83,18.75-15.35,21.67c.2,1.2,2,2.39,3.56,2.34,4.37-.15,9.45-1.74,14.77-3.48,2.34-.77,3.06.88,3.06.88"/><path class="cls-55" d="M259.5,128.13S257.56,132,257,132.3s1.41-.82,2.5-1.94a22.71,22.71,0,0,0,2.59-4.1A23.38,23.38,0,0,0,259.5,128.13Z"/><path class="cls-52" d="M265.59,109.18a.85.85,0,0,1,.27.61,4.77,4.77,0,0,1-.07,2.6,3.94,3.94,0,0,1-1,1.33,8.57,8.57,0,0,1-1.59,1.08"/><path class="cls-56" d="M272.19,102.67c-1,.3-1.57,1.62-1.92,2.53a14.33,14.33,0,0,0-.77,3.43,4.54,4.54,0,0,0,.17,2.4,4.67,4.67,0,0,0,.67,1,2.12,2.12,0,0,0,.48.51.74.74,0,0,0,.67.11c.32-.12.45-.5.54-.83a22.07,22.07,0,0,1,2.46-6.22"/><path class="cls-52" d="M271.05,109.51c0-.69-.75-1.14-1.37-.42a4.4,4.4,0,0,0-.69,2.53c0,1,.73,1.19,1.36,1.33"/><path class="cls-45" d="M264.17,126.83c1.27-1.46,5.31-3.86,10.7-3.69,3.71.12,13.82.73,14.95,3.22.58,1.27,1.2,14.27.35,18.75-.63,3.38-2.26,11.73-2.26,13.74s1.08,2.88.58,3.47c-1.13,1.31-8.87,1.86-12.5,1.86-3.24,0-8.74-.86-9-1.9-.41-1.54.63-1.48.77-3.09s.55-12.08,0-13.79c-1.07-3.09-1.59-8.13-2.44-10.42C264.61,133.25,262.9,128.29,264.17,126.83Z"/><path class="cls-55" d="M287.33,137.35c.39.8,3,5,3,5l.11.51a18.35,18.35,0,0,1-.27,2.24c-.63,3.38-2.26,11.73-2.26,13.74s1,2.85.58,3.47c-.89,1.21-15.48,3.93-14.77.55.07-.3,12.25-9.6,12.31-9.91.57-2.67,1.06-4.59,1.3-6.53C287.92,141.74,287,136.55,287.33,137.35Z"/><path class="cls-57" d="M271.93,118.49a40,40,0,0,1-.21,4.4,6.81,6.81,0,0,1-1,.57s.59,3.67,1.52,3.4,7-3.34,7-3.34-.86-.36-.86-.7.82-7,.82-7"/><path class="cls-57" d="M276.15,103.13c-.88.24-3.22-.25-3.86.72a22.28,22.28,0,0,0-1.46,4,41.21,41.21,0,0,0-1.14,4c-.46,1.72-1.21,4.88.48,6.32a2.23,2.23,0,0,0,1.3.66c.8.15,1.59.31,2.39.45a8.05,8.05,0,0,0,3.84.09c1.64-.54,2.54-2.8,3-4.33l2.41-8.78Z"/><path class="cls-58" d="M271.78,128.51s-.36,16.51-1,26.55l2.43,3.34,1.67-4.19a127.92,127.92,0,0,0-1.58-25.58Z"/><path class="cls-58" d="M271.22,127.06l.06.23a4.19,4.19,0,0,0,.5,1.22h0l1.49.12s1-.54,1.14-1.11-1.66-1.5-1.66-1.5l-.22.09a3.12,3.12,0,0,0-1.29.93Z"/><path class="cls-13" d="M278.48,121.79a6.4,6.4,0,0,1,1.7,1.73c-.77,1.75-2.5,4.86-4.4,6.28a8.67,8.67,0,0,0-3-3.78S278,125.1,278.48,121.79Z"/><path class="cls-13" d="M272.75,126a6.4,6.4,0,0,0-3,2.82,14.14,14.14,0,0,1,.4-5.23s1.22-1.56,1.64-1.59A8.22,8.22,0,0,0,272.75,126Z"/><path class="cls-52" d="M273,162.87a5.48,5.48,0,0,0-3.57,2,.41.41,0,0,0-.16.31c0,.15.2.21.35.23.86.14,1-.41,1.8-.74L273,164"/><path class="cls-59" d="M266.72,149.43l6.54,20.95a.75.75,0,0,1-.69,1.05l-13.64,1.2a1.28,1.28,0,0,1-1.15-.88l-7-20.64c-.17-.56.64-1.36,1.19-1.37l13.64-1.19A1.23,1.23,0,0,1,266.72,149.43Z"/><path class="cls-60" d="M266.27,150l6.45,20.63a.75.75,0,0,1-.69,1.06l-13.64,1.19a1.27,1.27,0,0,1-1.15-.88l-6.44-20.63a.75.75,0,0,1,.69-1.05l13.64-1.2A1.26,1.26,0,0,1,266.27,150Z"/><polygon class="cls-13" points="255.38 149.3 255.86 151.11 262.24 150.55 261.72 148.75 255.38 149.3"/><path class="cls-13" d="M256.59,147.62l.63,2,3-.28-.64-2a2.07,2.07,0,0,0-2-1.45A1.23,1.23,0,0,0,256.59,147.62Zm.67,0a.7.7,0,0,1,.57-1,1.16,1.16,0,0,1,1.14.81.7.7,0,0,1-.58,1A1.16,1.16,0,0,1,257.26,147.58Z"/><path class="cls-57" d="M278.18,161.41c-1.43.3-5.24,1.43-5.64,1.62a17.16,17.16,0,0,0-2.43,1.8c-1.44,1.44-.7,2.11-1.27,4.06a1.65,1.65,0,0,0,0,.31c0,.21.28.38.56.19.15.25.59.1.8-.18,0,.2.27.32.71.08.24-.13.2-.12.75-.61a5.45,5.45,0,0,1,1.55-.94,11.51,11.51,0,0,0,1.51-.7c.58-.38,1.62-.47,2.12-2.12a1.72,1.72,0,0,1,.8-.8l2.33-1.46"/><path class="cls-45" d="M287,134.57c.61,2.16,3.13,17.15,3.13,17.15L275.89,162l1.18,3.11s17-5.71,18.36-9.61S296.7,134,292,127.78a10.73,10.73,0,0,0-4.52-3"/><path class="cls-52" d="M272.39,166.81l-.35.32a5,5,0,0,0-.74.73c-.24.29-.47.59-.68.8a2.57,2.57,0,0,1-.36.32,6.64,6.64,0,0,1,.86-1.28A3.22,3.22,0,0,1,272,167Z"/><path class="cls-52" d="M271.61,165.86a2.19,2.19,0,0,0-.4.46,6,6,0,0,0-.35.5l-.19.29a2.85,2.85,0,0,0-.16.3,7.21,7.21,0,0,1-1,1.68s.08-.24.23-.57.35-.77.56-1.2a4.3,4.3,0,0,1,.82-1.09A2.24,2.24,0,0,1,271.61,165.86Z"/><path class="cls-52" d="M270.71,165.1a4.5,4.5,0,0,1-.34.49,4.8,4.8,0,0,0-.36.47,5.82,5.82,0,0,0-.28.61c-.17.43-.33.87-.46,1.2s-.21.55-.21.55a3.87,3.87,0,0,1,.06-.59,5.13,5.13,0,0,1,.4-1.25,3.51,3.51,0,0,1,.34-.63,6.09,6.09,0,0,1,.43-.44A3.81,3.81,0,0,0,270.71,165.1Z"/><path class="cls-58" d="M281.57,113.45c-.55-.33-1-.67-1.34-.14-.2.29-.31.68-.64.77a.65.65,0,0,1-.75-.52,1.86,1.86,0,0,1,.13-1c.22-.72.44-1.44.67-2.16a3.23,3.23,0,0,0,.15-2.16,2.43,2.43,0,0,0-.68-.88,7.28,7.28,0,0,0-3.32-1.42,33.21,33.21,0,0,1-3.57-.73,3.87,3.87,0,0,1-1.36-.68,3,3,0,0,1-1-2.2,4.48,4.48,0,0,1,.7-2.35,3.49,3.49,0,0,0,.35.82,3.12,3.12,0,0,1,.65-1c.35,1.93,8.5,1.29,10.4,2.14,1.32.59,2.41,1,2.37,3.12a.84.84,0,0,0,.26.34,5.91,5.91,0,0,1,1.82,4.32c.18,2.37-1.2,4.94-2.55,6.9a4.7,4.7,0,0,1-1,1.2,2.7,2.7,0,0,1-1.89.43c-.59-.12-1.75-.07-1.76-.66,0-.43.91-1.19,1.16-1.54"/><path class="cls-57" d="M279.44,115.69a.89.89,0,0,0,.15.71.9.9,0,0,0,1,.14,2.58,2.58,0,0,0,1.62-2c.19-1-.36-2.05-1.3-1.78a1.37,1.37,0,0,0-.88,1.35"/><path class="cls-52" d="M271.93,118.85l2.62.48a3.66,3.66,0,0,1-2.65,1"/><g class="cls-61"><polyline class="cls-62" points="66.75 74.05 70.25 75.81 68.5 71.51"/><path class="cls-62" d="M55.89,68.55a7.41,7.41,0,1,0,7.4-7A7.2,7.2,0,0,0,55.89,68.55Z"/><path class="cls-63" d="M61.48,66.26v5a.52.52,0,0,0,.78.45l4.32-2.49a.53.53,0,0,0,0-.91l-4.32-2.49A.52.52,0,0,0,61.48,66.26Z"/></g><g class="cls-61"><polyline class="cls-62" points="308.95 127.15 305.45 128.91 307.2 124.61"/><path class="cls-62" d="M319.81,121.65a7.41,7.41,0,1,1-7.4-7A7.2,7.2,0,0,1,319.81,121.65Z"/><path class="cls-63" d="M311.09,125c1.61,0,3.24,0,4.73,0,.47,0,.87-.74.3-1a1,1,0,0,0,.59-.48.47.47,0,0,0-.29-.63c.56.13.78-.71.35-1a1.22,1.22,0,0,0,.47-.71.7.7,0,0,0-.34-.74,1.24,1.24,0,0,0-.58-.09l-2,0a4.19,4.19,0,0,0-.3-2.94c-.16-.26-.59-.57-.94-.37s-.23.66-.21,1A3.32,3.32,0,0,1,311,121S311.11,123.66,311.09,125Z"/><rect class="cls-63" x="308.07" y="121.04" width="2.44" height="3.96"/></g><g class="cls-61"><polyline class="cls-62" points="196.95 66.54 199.5 63.78 196 64.47"/><path class="cls-62" d="M187.49,67.18a5.37,5.37,0,1,0,5.36-5.06A5.21,5.21,0,0,0,187.49,67.18Z"/><path class="cls-63" d="M191.82,69.61c1.06,0,2.13,0,3.1,0,.31,0,.58-.53.2-.69a.74.74,0,0,0,.39-.35.36.36,0,0,0-.19-.46c.37.1.51-.51.23-.71a.86.86,0,0,0,.3-.52.5.5,0,0,0-.22-.53.7.7,0,0,0-.38-.07h-1.32a3.29,3.29,0,0,0-.19-2.13c-.11-.19-.39-.42-.61-.27s-.16.47-.15.69a2.44,2.44,0,0,1-1.19,2.21S191.84,68.64,191.82,69.61Z"/><rect class="cls-63" x="189.84" y="66.73" width="1.6" height="2.87"/></g><g class="cls-61"><path class="cls-62" d="M221.94,29.52a7.89,7.89,0,1,0-1.8,1.66l3.06,1.63Z"/><path class="cls-13" d="M212.41,22.42a1.94,1.94,0,0,1,2.73,0l.5.51.5-.5a1.93,1.93,0,1,1,2.72,2.75L217,27.06l0,0a1.92,1.92,0,0,1-2.73,0l-1.85-1.89A1.94,1.94,0,0,1,212.41,22.42Z"/></g></g></g></g></svg>