<?xml version="1.0" encoding="utf-8"?>
<!-- Generator: Adobe Illustrator 24.0.1, SVG Export Plug-In . SVG Version: 6.00 Build 0)  -->
<svg version="1.1" id="Capa_1" xmlns="http://www.w3.org/2000/svg" xmlns:xlink="http://www.w3.org/1999/xlink" x="0px" y="0px"
	 viewBox="0 0 288.8 288.8" style="enable-background:new 0 0 288.8 288.8;" xml:space="preserve">
<style type="text/css">
	.st0{fill:#6EA5DB;}
</style>
<g>
	<path id="Arrow_Up_Right" class="st0" d="M2.8,144.4c0,4.7,3.8,8.5,8.5,8.5l245.7,0L211,198.8c-3.3,3.3-3.3,8.8,0,12.1
		c3.3,3.3,8.8,3.3,12.1,0l60.5-60.5c1.6-1.6,2.5-3.8,2.5-6c0-2.3-0.9-4.4-2.5-6l-60.5-60.5c-3.3-3.3-8.8-3.3-12.1,0s-3.3,8.8,0,12.1
		l45.9,45.9l-245.7,0C6.6,135.9,2.7,139.7,2.8,144.4z"/>
</g>
</svg>
