<?xml version="1.0" encoding="utf-8"?>
<!-- Generator: Adobe Illustrator 24.0.1, SVG Export Plug-In . SVG Version: 6.00 Build 0)  -->
<svg version="1.1" id="Layer_1" xmlns="http://www.w3.org/2000/svg" xmlns:xlink="http://www.w3.org/1999/xlink" x="0px" y="0px"
	 viewBox="0 0 256 360" style="enable-background:new 0 0 256 360;" xml:space="preserve">
<style type="text/css">
	.st0{fill:url(#SVGID_1_);stroke:url(#SVGID_2_);stroke-width:1.0893;stroke-miterlimit:10;}
	.st1{fill:url(#SVGID_3_);stroke:url(#SVGID_4_);stroke-width:1.0893;stroke-miterlimit:10;}
	.st2{fill:url(#SVGID_5_);stroke:url(#SVGID_6_);stroke-width:1.0893;stroke-miterlimit:10;}
	.st3{fill:url(#SVGID_7_);}
	.st4{fill:none;stroke:url(#SVGID_8_);stroke-width:1.0893;stroke-miterlimit:10;}
	.st5{fill:#090909;stroke:#000000;stroke-width:1.9479;stroke-miterlimit:10;}
	.st6{clip-path:url(#SVGID_10_);fill:#FFFFFF;}
	.st7{clip-path:url(#SVGID_10_);}
	.st8{opacity:0.43;fill:url(#SVGID_11_);}
	.st9{fill:none;stroke:#BBBBBB;stroke-width:0.5673;stroke-miterlimit:10;}
	.st10{clip-path:url(#SVGID_13_);fill:#373737;}
	.st11{clip-path:url(#SVGID_13_);}
	.st12{fill:#FFFFFF;}
	.st13{fill:#BBBBBB;}
	.st14{clip-path:url(#SVGID_15_);fill:#373737;}
	.st15{clip-path:url(#SVGID_15_);}
	.st16{clip-path:url(#SVGID_10_);fill:url(#SVGID_16_);}
	.st17{fill:#FF653D;}
	.st18{fill:none;stroke:#373737;stroke-width:0.8146;stroke-linejoin:round;stroke-miterlimit:10;}
	.st19{fill:#373737;stroke:#373737;stroke-width:0.8339;stroke-linejoin:round;stroke-miterlimit:10;}
	.st20{fill:#373737;}
	.st21{opacity:0.26;}
	.st22{opacity:0.61;fill:#BBBBBB;}
	.st23{opacity:0.26;fill:#BBBBBB;}
	.st24{fill:url(#SVGID_17_);}
	.st25{opacity:0.75;clip-path:url(#SVGID_19_);}
	.st26{fill-rule:evenodd;clip-rule:evenodd;fill:#FFC6C6;}
	.st27{clip-path:url(#SVGID_19_);}
	.st28{fill:#FF29A1;}
	.st29{fill:#006164;}
	.st30{fill:#FA5627;}
	.st31{fill:none;}
	.st32{fill-rule:evenodd;clip-rule:evenodd;fill:#FF653D;}
	.st33{fill:#004D50;}
	.st34{fill:url(#SVGID_20_);}
	.st35{fill:url(#SVGID_21_);stroke:url(#SVGID_22_);stroke-width:1.0893;stroke-miterlimit:10;}
	.st36{fill:url(#SVGID_23_);stroke:url(#SVGID_24_);stroke-width:1.0893;stroke-miterlimit:10;}
	.st37{fill:url(#SVGID_25_);stroke:url(#SVGID_26_);stroke-width:1.0893;stroke-miterlimit:10;}
	.st38{fill:url(#SVGID_27_);}
	.st39{fill:none;stroke:url(#SVGID_28_);stroke-width:1.0893;stroke-miterlimit:10;}
	.st40{clip-path:url(#SVGID_30_);fill:#FFFFFF;}
	.st41{clip-path:url(#SVGID_30_);}
	.st42{opacity:0.43;fill:url(#SVGID_31_);}
	.st43{clip-path:url(#SVGID_33_);fill:#373737;}
	.st44{clip-path:url(#SVGID_33_);}
	.st45{clip-path:url(#SVGID_35_);fill:#373737;}
	.st46{clip-path:url(#SVGID_35_);}
	.st47{clip-path:url(#SVGID_30_);fill:url(#SVGID_36_);}
	.st48{fill:url(#SVGID_37_);}
	.st49{opacity:0.75;clip-path:url(#SVGID_39_);}
	.st50{clip-path:url(#SVGID_39_);}
	.st51{fill:#FFCA69;}
	.st52{fill:#150035;}
	.st53{fill:#FFB000;}
	.st54{opacity:0.8;fill:#FFC2B9;}
	.st55{fill:#DADFE3;}
	.st56{fill:#07085B;}
	.st57{opacity:0.62;fill:#FFFFFF;}
	.st58{fill:#FF5B7E;}
	.st59{fill:#02CCC0;}
	.st60{fill:#FEB546;}
	.st61{fill:#FFC0BB;}
	.st62{fill:#1E5AA8;}
	.st63{fill:#3478CF;}
	.st64{opacity:0.6;fill:#FC8D84;}
	.st65{fill:#333333;}
	.st66{fill:#F99893;}
	.st67{fill:#66D2DD;}
	.st68{fill:#E6E6E6;}
	.st69{fill:none;stroke:#000000;stroke-linecap:round;stroke-linejoin:round;stroke-miterlimit:10;}
	.st70{fill:#630097;}
	.st71{fill:none;stroke:#FFFFFF;stroke-width:0.5;stroke-miterlimit:10;}
	.st72{fill:none;stroke:#000000;stroke-width:0.5;stroke-linecap:round;stroke-linejoin:round;stroke-miterlimit:10;}
	.st73{fill:none;stroke:#FF0076;stroke-width:3;stroke-linecap:round;stroke-linejoin:round;stroke-miterlimit:10;}
	.st74{fill:none;stroke:#630097;stroke-width:6;stroke-linecap:round;stroke-linejoin:round;stroke-miterlimit:10;}
	.st75{fill:none;stroke:#EDB900;stroke-width:9;stroke-linecap:round;stroke-linejoin:round;stroke-miterlimit:10;}
	.st76{opacity:0.8;fill:#F2F2F2;}
	.st77{fill:#ED9F8C;}
	.st78{fill:#16110D;}
	.st79{fill:#FFBE2E;}
	.st80{fill:#FFEECC;}
	.st81{fill:#FEBD33;}
	.st82{fill:#130E0C;}
	.st83{fill:#FBEACC;}
	.st84{fill:#140F0C;}
	.st85{fill:#FCEBCC;}
	.st86{fill:#FDECCC;}
	.st87{fill:#FEEDCC;}
	.st88{fill:#15100C;}
	.st89{fill:#FDBC38;}
	.st90{fill:#E3DEDE;}
	.st91{fill:#6057B2;}
	.st92{fill:#6E2D75;}
	.st93{fill:#CA54CD;}
	.st94{fill:#EC8943;}
	.st95{fill:#FFC044;}
	.st96{fill:#ABABE4;}
</style>
<rect class="st67" width="256" height="360"/>
<g id="copter">
	<path class="st90" d="M200.5,209.2l-52.4,30.3c-12.8,7.4-28.5,7.4-41.3,0l-52.4-30.3c-10.7-6.2-10.7-21.6,0-27.8l65-37.6
		c5-2.9,11.1-2.9,16.1,0l65,37.6C211.2,187.6,211.2,203,200.5,209.2z"/>
	<g>
		<path class="st91" d="M182.2,182.5l-48.6,28c-3.2,1.8-8.3,1.8-11.5,0l-48.6-28c-3.2-1.8-3.2-4.8,0-6.6l48.6-28
			c3.2-1.8,8.3-1.8,11.5,0l48.6,28C185.4,177.6,185.4,180.6,182.2,182.5z"/>
		<path class="st92" d="M221.5,179.2c0-0.1,0-0.1,0-0.2v-10.3l-2.8,2.2c-1.8-2.5-4.5-4.9-8-6.9c-14.5-8.4-38-8.3-52.3,0.2
			c-13.7,8.1-13.7,21.7,0,29.7c14.4,8.5,37.9,8.5,52.3,0.2C217.9,190.1,221.5,184.7,221.5,179.2L221.5,179.2L221.5,179.2z"/>
		<g>
			<path class="st93" d="M184.7,159.8c9.5,0,18.4,2.1,25.1,6c3.2,1.9,5.7,4,7.4,6.4l1.2,1.6l1.3-1v6.4v0l0,0c0,0,0,0.1,0,0.1l0,0.1
				c-0.1,4.9-3.6,9.6-9.8,13.3c-6.7,3.9-15.6,6-25.1,6c-4.7,0-9.3-0.5-13.6-1.5c-4.4-1.1-8.4-2.6-11.8-4.6c-3.1-1.8-5.5-4-7.1-6.4
				c-1.5-2.2-2.3-4.5-2.3-6.9c0-2.4,0.8-4.7,2.3-6.9c1.6-2.4,4-4.5,7.1-6.4c3.4-2,7.3-3.5,11.8-4.6
				C175.4,160.3,180,159.8,184.7,159.8L184.7,159.8z M184.7,157.9c-9.5,0-19.1,2.1-26.3,6.4c-13.7,8.1-13.7,21.7,0,29.7
				c7.2,4.3,16.8,6.4,26.3,6.4c9.4,0,18.8-2.1,26-6.2c7.1-4.1,10.7-9.5,10.8-14.9l0,0v-0.1c0-0.1,0-0.1,0-0.2v-10.3l-2.8,2.2
				c-1.8-2.5-4.5-4.9-8-6.9C203.6,160,194.1,157.9,184.7,157.9L184.7,157.9z"/>
		</g>
		<path class="st92" d="M101.9,161.5c14.4,8.3,37.6,8.3,52,0c7.2-4.1,10.7-9.5,10.8-14.9l0,0v-10.9l-2.6,2.9
			c-1.8-2.6-4.5-5.1-8.2-7.2c-14.4-8.3-37.6-8.3-52,0c-3.2,1.9-5.7,4-7.5,6.3l-3.3-2.1v10.8C91.1,151.9,94.7,157.3,101.9,161.5z"/>
		<g>
			<path class="st93" d="M127.9,127.1c9.5,0,18.4,2.1,25.1,6c3.3,1.9,5.9,4.1,7.6,6.6l1.4,2l0.9-1v5.6l0,0.2c0,5-3.5,9.7-9.8,13.3
				c-6.7,3.8-15.6,6-25.1,6s-18.4-2.1-25.1-6c-6.3-3.7-9.8-8.4-9.8-13.4v-7.4l0.4,0.2l1.4,0.9l1-1.3c1.7-2.1,4-4.1,7-5.8
				C109.5,129.2,118.4,127.1,127.9,127.1L127.9,127.1z M127.9,125.2c-9.4,0-18.8,2.1-26,6.2c-3.2,1.9-5.7,4-7.5,6.3l-3.3-2.1v10.8
				c0,5.4,3.6,10.9,10.8,15c7.2,4.1,16.6,6.2,26,6.2c9.4,0,18.8-2.1,26-6.2c7.2-4.1,10.7-9.5,10.8-14.9l0,0v-10.9l-2.6,2.9
				c-1.8-2.6-4.5-5.1-8.2-7.2C146.7,127.3,137.3,125.2,127.9,125.2L127.9,125.2z"/>
		</g>
		<path class="st92" d="M153.9,196.9c-14.4-8.3-37.6-8.3-52,0c-3.9,2.3-6.8,4.9-8.5,7.7l-2.2-2.3v11.4l0.1,0
			c0.7,4.8,4.2,9.5,10.6,13.2c14.4,8.3,37.6,8.3,52,0c7.2-4.1,10.8-9.6,10.8-15v-10.7l-2.3,3.3C160.6,201.7,157.8,199.1,153.9,196.9
			z"/>
		<path class="st93" d="M127.9,192.5c9.5,0,18.4,2.1,25.1,6c3.5,2,6.1,4.4,7.8,7l1.5,2.4l0.5-0.7v4.7c0,5-3.5,9.7-9.8,13.4
			c-6.7,3.8-15.6,6-25.1,6c-9.5,0-18.4-2.1-25.1-6c-5.6-3.2-9.1-7.5-9.7-11.9l-0.1-0.8v-5.7l0.7,0.7l1.3-2c1.7-2.7,4.3-5,7.9-7.1
			C109.5,194.6,118.4,192.5,127.9,192.5L127.9,192.5z M127.9,190.6c-9.4,0-18.8,2.1-26,6.2c-3.9,2.3-6.8,4.9-8.5,7.7l-2.2-2.3v11.4
			l0.1,0c0.7,4.8,4.2,9.5,10.6,13.2c7.2,4.1,16.6,6.2,26,6.2c9.4,0,18.8-2.1,26-6.2c7.2-4.1,10.8-9.6,10.8-15v-10.7l-2.3,3.3
			c-1.8-2.8-4.6-5.4-8.5-7.6C146.7,192.7,137.3,190.6,127.9,190.6L127.9,190.6z"/>
		<path class="st92" d="M97.6,194c13.7-8.1,13.7-21.7,0-29.7c-14.4-8.5-37.9-8.5-52.3-0.2c-3.4,2-6,4.2-7.8,6.6l-3-1.8v11l0,0
			c0.3,5.2,3.9,10.3,10.8,14.3C59.7,202.5,83.2,202.5,97.6,194z"/>
		<g>
			<path class="st93" d="M71.3,159.8c4.7,0,9.3,0.5,13.6,1.5c4.4,1.1,8.4,2.6,11.8,4.6c3.1,1.8,5.5,4,7.1,6.4
				c1.5,2.2,2.3,4.5,2.3,6.9c0,2.4-0.8,4.7-2.3,6.9c-1.6,2.4-4,4.5-7.1,6.4c-3.4,2-7.3,3.5-11.8,4.6c-4.3,1-8.9,1.5-13.6,1.5
				c-9.5,0-18.4-2.1-25.1-6c-6.1-3.5-9.5-8-9.8-12.8l0-0.4v-7.2l0.1,0.1l1.5,0.9l1-1.4c1.7-2.3,4.1-4.3,7.2-6.1
				C52.9,161.9,61.8,159.8,71.3,159.8L71.3,159.8z M71.3,157.9c-9.4,0-18.8,2.1-26,6.2c-3.4,2-6,4.2-7.8,6.6l-3-1.8v11l0,0
				c0.3,5.2,3.9,10.3,10.8,14.3c7.2,4.2,16.6,6.2,26,6.2c9.5,0,19.1-2.1,26.3-6.4c13.7-8.1,13.7-21.7,0-29.7
				C90.4,160,80.8,157.9,71.3,157.9L71.3,157.9z"/>
		</g>
		<path class="st93" d="M182.2,172.2l-48.6,28c-3.2,1.8-8.3,1.8-11.5,0l-48.6-28c-3.2-1.8-3.2-4.8,0-6.6l48.6-28
			c3.2-1.8,8.3-1.8,11.5,0l48.6,28C185.4,167.4,185.4,170.4,182.2,172.2z"/>
		<ellipse class="st93" cx="184.6" cy="168.9" rx="36.8" ry="21.3"/>
		<ellipse class="st93" cx="127.9" cy="136.3" rx="36.8" ry="21.3"/>
		<ellipse class="st93" cx="127.9" cy="201.6" rx="36.8" ry="21.3"/>
		<ellipse class="st93" cx="71.2" cy="168.9" rx="36.8" ry="21.3"/>
		<path class="st92" d="M102.8,171.3c-0.9,3.9-3.9,7.6-9.1,10.6c-12.5,7.2-32.7,7.2-45.1,0c-5.2-3-8.2-6.7-9.1-10.6
			c-1.2-5.5,1.8-11.2,9.1-15.4c12.5-7.2,32.7-7.2,45.1,0C101.1,160.1,104.1,165.9,102.8,171.3z"/>
		<path class="st12" d="M102.8,171.3c-0.9,3.9-3.9,7.6-9.1,10.6c-12.5,7.2-32.7,7.2-45.1,0c-5.2-3-8.2-6.7-9.1-10.6
			c0.9-3.9,3.9-7.6,9.1-10.6c12.5-7.2,32.7-7.2,45.1,0C98.9,163.7,101.9,167.5,102.8,171.3z"/>
		<g>
			<path class="st94" d="M81,171.9v-2.7h-1.5c-0.4-0.4-0.8-0.7-1.4-1c-3.9-2.2-10.1-2.2-14,0c-0.5,0.3-1,0.6-1.4,1h-1.5v2.7
				c0,0.2,0,0.5,0,0.7v0l0,0c0.1,1.3,1.1,2.7,2.9,3.7c3.9,2.2,10.1,2.2,14,0C80.2,175.1,81.2,173.5,81,171.9z"/>
			<ellipse class="st95" cx="71.2" cy="168.9" rx="9.9" ry="5.7"/>
		</g>
		<path class="st96" d="M71.2,184.3c-0.2,0-0.3-0.1-0.3-0.3c0-0.2,0.1-0.3,0.3-0.3c6.9,0,13.4-1.5,18.2-4.4
			c4.8-2.8,7.5-6.4,7.5-10.3c0-3.9-2.6-7.6-7.5-10.3c-0.2-0.1-0.2-0.3-0.1-0.5c0.1-0.2,0.3-0.2,0.5-0.1c5,2.9,7.8,6.8,7.8,10.9
			c0,4.1-2.8,8-7.8,10.9C84.8,182.7,78.2,184.3,71.2,184.3z"/>
		<path class="st96" d="M52.8,179.9c-0.1,0-0.1,0-0.2,0c-5-2.9-7.8-6.8-7.8-10.9c0-4.1,2.8-8,7.8-10.9c5.5-3.2,13.2-4.8,21-4.4
			c0.2,0,0.3,0.2,0.3,0.3c0,0.2-0.2,0.3-0.3,0.3c-7.7-0.4-15.2,1.2-20.6,4.3c-4.8,2.8-7.5,6.4-7.5,10.3c0,3.9,2.6,7.6,7.5,10.3
			c0.2,0.1,0.2,0.3,0.1,0.5C53,179.8,52.9,179.9,52.8,179.9z"/>
		<path class="st96" d="M74.7,180.6c-0.2,0-0.3-0.1-0.3-0.3c0-0.2,0.1-0.3,0.3-0.4c4-0.4,7.6-1.5,10.4-3.1c3.1-1.8,5.1-4.2,5.6-6.7
			c0.4-2-0.3-4.1-1.8-5.9c-0.1-0.1-0.1-0.4,0-0.5c0.1-0.1,0.4-0.1,0.5,0c1.7,2,2.3,4.2,1.9,6.4c-0.5,2.7-2.6,5.3-5.9,7.2
			C82.5,179,78.8,180.1,74.7,180.6C74.8,180.6,74.7,180.6,74.7,180.6z"/>
		<path class="st96" d="M52.1,172.4c-0.1,0-0.2-0.1-0.3-0.2c-2.1-4.2-0.1-8.7,5.2-11.7c3.1-1.8,7.1-2.9,11.4-3.3
			c0.2,0,0.3,0.1,0.4,0.3c0,0.2-0.1,0.3-0.3,0.4c-4.2,0.3-8.1,1.5-11.1,3.2c-4.9,2.9-6.8,7-4.9,10.9c0.1,0.2,0,0.4-0.1,0.4
			C52.2,172.4,52.1,172.4,52.1,172.4z"/>
		<path class="st96" d="M75.6,177.3c-0.2,0-0.3-0.1-0.3-0.3c0-0.2,0.1-0.4,0.3-0.4c2.2-0.4,4.2-1.1,5.8-2c3.4-2,4.8-4.8,3.8-7.4
			c-0.1-0.2,0-0.4,0.2-0.4c0.2-0.1,0.4,0,0.4,0.2c1.2,3-0.4,6.1-4.1,8.3C80,176.2,78,176.9,75.6,177.3
			C75.7,177.3,75.7,177.3,75.6,177.3z"/>
		<path class="st96" d="M57.1,171.6c-0.1,0-0.2-0.1-0.3-0.2c-1.5-3.1,0-6.5,3.9-8.7c2.1-1.2,4.8-2,7.7-2.4c0.2,0,0.3,0.1,0.4,0.3
			c0,0.2-0.1,0.3-0.3,0.4c-2.8,0.3-5.4,1.1-7.5,2.3c-3.6,2.1-5,5.1-3.6,7.9c0.1,0.2,0,0.4-0.2,0.4C57.2,171.6,57.1,171.6,57.1,171.6
			z"/>
		<path class="st92" d="M159.5,138.7c-0.9,3.9-3.9,7.6-9.1,10.6c-12.5,7.2-32.7,7.2-45.1,0c-5.1-3-8.2-6.7-9.1-10.6
			c-1.3-5.5,1.7-11.3,9.1-15.5c12.5-7.2,32.7-7.2,45.1,0C157.8,127.5,160.8,133.2,159.5,138.7z"/>
		<path class="st12" d="M159.5,138.7c-0.9,3.9-3.9,7.6-9.1,10.6c-12.5,7.2-32.7,7.2-45.1,0c-5.1-3-8.2-6.7-9.1-10.6
			c0.9-3.9,3.9-7.6,9.1-10.6c12.5-7.2,32.7-7.2,45.1,0C155.6,131.1,158.6,134.9,159.5,138.7z"/>
		<path class="st92" d="M217,171c-0.8,4-3.8,7.9-9.1,10.9c-12.5,7.2-32.7,7.2-45.1,0c-5.3-3.1-8.4-6.9-9.1-10.9
			c-1.1-5.4,2-11,9.1-15.1c12.5-7.2,32.7-7.2,45.1,0C215,160,218,165.6,217,171z"/>
		<path class="st12" d="M217,171c-0.8,4-3.8,7.9-9.1,10.9c-12.5,7.2-32.7,7.2-45.1,0c-5.3-3.1-8.4-6.9-9.1-10.9
			c0.8-4,3.8-7.9,9.1-10.9c12.5-7.2,32.7-7.2,45.1,0C213.1,163.1,216.2,167,217,171z"/>
		<path class="st92" d="M159.7,204.5c-1,3.7-4,7.3-9,10.2c-12.5,7.2-32.7,7.2-45.1,0c-5-2.9-8-6.4-9-10.2c-1.5-5.6,1.5-11.6,9-15.9
			c12.5-7.2,32.7-7.2,45.1,0C158.3,193,161.3,198.9,159.7,204.5z"/>
		<path class="st12" d="M159.7,204.5c-1,3.7-4,7.3-9,10.2c-12.5,7.2-32.7,7.2-45.1,0c-5-2.9-8-6.4-9-10.2c1-3.7,4-7.3,9-10.2
			c12.5-7.2,32.7-7.2,45.1,0C155.7,197.2,158.7,200.8,159.7,204.5z"/>
		<path class="st96" d="M127.9,151.6c-0.2,0-0.3-0.1-0.3-0.3c0-0.2,0.1-0.3,0.3-0.3c6.9,0,13.4-1.5,18.2-4.4
			c4.8-2.8,7.5-6.4,7.5-10.3c0-3.9-2.6-7.6-7.5-10.3c-0.2-0.1-0.2-0.3-0.1-0.5c0.1-0.2,0.3-0.2,0.5-0.1c5,2.9,7.8,6.8,7.8,10.9
			c0,4.1-2.8,8-7.8,10.9C141.5,150,134.9,151.6,127.9,151.6z"/>
		<path class="st96" d="M109.5,147.2c-0.1,0-0.1,0-0.2,0c-5-2.9-7.8-6.8-7.8-10.9c0-4.1,2.8-8,7.8-10.9c5.5-3.2,13.2-4.8,21-4.4
			c0.2,0,0.3,0.2,0.3,0.3c0,0.2-0.2,0.3-0.3,0.3c-7.7-0.4-15.2,1.2-20.6,4.3c-4.8,2.8-7.5,6.4-7.5,10.3c0,3.9,2.6,7.6,7.5,10.3
			c0.2,0.1,0.2,0.3,0.1,0.5C109.7,147.2,109.6,147.2,109.5,147.2z"/>
		<path class="st96" d="M131.4,147.9c-0.2,0-0.3-0.1-0.3-0.3c0-0.2,0.1-0.3,0.3-0.4c4-0.4,7.6-1.5,10.4-3.1c3.1-1.8,5.1-4.2,5.6-6.7
			c0.4-2-0.3-4.1-1.8-5.9c-0.1-0.1-0.1-0.4,0-0.5c0.1-0.1,0.4-0.1,0.5,0c1.7,2,2.3,4.2,1.9,6.4c-0.5,2.7-2.6,5.3-5.9,7.2
			C139.2,146.4,135.5,147.5,131.4,147.9C131.5,147.9,131.5,147.9,131.4,147.9z"/>
		<path class="st96" d="M108.8,139.8c-0.1,0-0.2-0.1-0.3-0.2c-2.1-4.2-0.1-8.7,5.2-11.7c3.1-1.8,7.1-2.9,11.4-3.3
			c0.2,0,0.3,0.1,0.4,0.3c0,0.2-0.1,0.3-0.3,0.4c-4.2,0.3-8.1,1.5-11.1,3.2c-4.9,2.9-6.8,7-4.9,10.9c0.1,0.2,0,0.4-0.1,0.4
			C108.9,139.8,108.8,139.8,108.8,139.8z"/>
		<path class="st96" d="M132.4,144.7c-0.2,0-0.3-0.1-0.3-0.3c0-0.2,0.1-0.4,0.3-0.4c2.2-0.4,4.2-1.1,5.8-2c3.4-2,4.8-4.8,3.8-7.4
			c-0.1-0.2,0-0.4,0.2-0.4c0.2-0.1,0.4,0,0.4,0.2c1.2,3-0.4,6.1-4.1,8.3C136.7,143.5,134.7,144.2,132.4,144.7
			C132.4,144.7,132.4,144.7,132.4,144.7z"/>
		<path class="st96" d="M113.8,138.9c-0.1,0-0.2-0.1-0.3-0.2c-1.5-3.1,0-6.5,3.9-8.7c2.1-1.2,4.8-2,7.7-2.4c0.2,0,0.3,0.1,0.4,0.3
			c0,0.2-0.1,0.3-0.3,0.4c-2.8,0.3-5.4,1.1-7.5,2.3c-3.6,2.1-5,5.1-3.6,7.9c0.1,0.2,0,0.4-0.2,0.4
			C113.9,138.9,113.8,138.9,113.8,138.9z"/>
		<path class="st96" d="M184.6,184.5c-0.2,0-0.3-0.1-0.3-0.3c0-0.2,0.1-0.3,0.3-0.3c6.9,0,13.4-1.5,18.2-4.4
			c4.8-2.8,7.5-6.4,7.5-10.3c0-3.9-2.6-7.6-7.5-10.3c-0.2-0.1-0.2-0.3-0.1-0.5c0.1-0.2,0.3-0.2,0.5-0.1c5,2.9,7.8,6.8,7.8,10.9
			c0,4.1-2.8,8-7.8,10.9C198.2,182.9,191.6,184.5,184.6,184.5z"/>
		<path class="st96" d="M166.2,180.1c-0.1,0-0.1,0-0.2,0c-5-2.9-7.8-6.8-7.8-10.9c0-4.1,2.8-8,7.8-10.9c5.5-3.2,13.2-4.8,21-4.4
			c0.2,0,0.3,0.2,0.3,0.3c0,0.2-0.2,0.3-0.3,0.3c-7.7-0.4-15.2,1.2-20.6,4.3c-4.8,2.8-7.5,6.4-7.5,10.3c0,3.9,2.6,7.6,7.5,10.3
			c0.2,0.1,0.2,0.3,0.1,0.5C166.4,180.1,166.3,180.1,166.2,180.1z"/>
		<path class="st96" d="M188.2,180.8c-0.2,0-0.3-0.1-0.3-0.3c0-0.2,0.1-0.3,0.3-0.4c4-0.4,7.6-1.5,10.4-3.1c3.1-1.8,5.1-4.2,5.6-6.7
			c0.4-2-0.3-4.1-1.8-5.9c-0.1-0.1-0.1-0.4,0-0.5c0.1-0.1,0.4-0.1,0.5,0c1.7,2,2.3,4.2,1.9,6.4c-0.5,2.7-2.6,5.3-5.9,7.2
			C195.9,179.3,192.2,180.4,188.2,180.8C188.2,180.8,188.2,180.8,188.2,180.8z"/>
		<path class="st96" d="M165.5,172.7c-0.1,0-0.2-0.1-0.3-0.2c-2.1-4.2-0.1-8.7,5.2-11.7c3.1-1.8,7.1-2.9,11.4-3.3
			c0.2,0,0.3,0.1,0.4,0.3c0,0.2-0.1,0.3-0.3,0.4c-4.2,0.3-8.1,1.5-11.1,3.2c-4.9,2.9-6.8,7-4.9,10.9c0.1,0.2,0,0.4-0.1,0.4
			C165.6,172.7,165.6,172.7,165.5,172.7z"/>
		<path class="st96" d="M189.1,177.6c-0.2,0-0.3-0.1-0.3-0.3c0-0.2,0.1-0.4,0.3-0.4c2.2-0.4,4.2-1.1,5.8-2c3.4-2,4.8-4.8,3.8-7.4
			c-0.1-0.2,0-0.4,0.2-0.4c0.2-0.1,0.4,0,0.4,0.2c1.2,3-0.4,6.1-4.1,8.3C193.5,176.4,191.4,177.1,189.1,177.6
			C189.1,177.6,189.1,177.6,189.1,177.6z"/>
		<path class="st96" d="M170.5,171.8c-0.1,0-0.2-0.1-0.3-0.2c-1.5-3.1,0-6.5,3.9-8.7c2.1-1.2,4.8-2,7.7-2.4c0.2,0,0.3,0.1,0.4,0.3
			c0,0.2-0.1,0.3-0.3,0.4c-2.8,0.3-5.4,1.1-7.5,2.3c-3.6,2.1-5,5.1-3.6,7.9c0.1,0.2,0,0.4-0.2,0.4
			C170.6,171.8,170.5,171.8,170.5,171.8z"/>
		<path class="st96" d="M127.9,217c-0.2,0-0.3-0.1-0.3-0.3c0-0.2,0.1-0.3,0.3-0.3c6.9,0,13.4-1.5,18.2-4.4c4.8-2.8,7.5-6.4,7.5-10.3
			c0-3.9-2.6-7.6-7.5-10.3c-0.2-0.1-0.2-0.3-0.1-0.5c0.1-0.2,0.3-0.2,0.5-0.1c5,2.9,7.8,6.8,7.8,10.9s-2.8,8-7.8,10.9
			C141.5,215.5,134.9,217,127.9,217z"/>
		<path class="st96" d="M109.5,212.6c-0.1,0-0.1,0-0.2,0c-5-2.9-7.8-6.8-7.8-10.9s2.8-8,7.8-10.9c5.5-3.2,13.2-4.8,21-4.4
			c0.2,0,0.3,0.2,0.3,0.3c0,0.2-0.2,0.3-0.3,0.3c-7.7-0.4-15.2,1.2-20.6,4.3c-4.8,2.8-7.5,6.4-7.5,10.3c0,3.9,2.6,7.6,7.5,10.3
			c0.2,0.1,0.2,0.3,0.1,0.5C109.7,212.6,109.6,212.6,109.5,212.6z"/>
		<path class="st96" d="M131.4,213.3c-0.2,0-0.3-0.1-0.3-0.3c0-0.2,0.1-0.3,0.3-0.4c4-0.4,7.6-1.5,10.4-3.1c3.1-1.8,5.1-4.2,5.6-6.7
			c0.4-2-0.3-4.1-1.8-5.9c-0.1-0.1-0.1-0.4,0-0.5c0.1-0.1,0.4-0.1,0.5,0c1.7,2,2.3,4.2,1.9,6.4c-0.5,2.7-2.6,5.3-5.9,7.2
			C139.2,211.8,135.5,212.9,131.4,213.3C131.5,213.3,131.5,213.3,131.4,213.3z"/>
		<path class="st96" d="M108.8,205.2c-0.1,0-0.2-0.1-0.3-0.2c-2.1-4.2-0.1-8.7,5.2-11.7c3.1-1.8,7.1-2.9,11.4-3.3
			c0.2,0,0.3,0.1,0.4,0.3s-0.1,0.3-0.3,0.4c-4.2,0.3-8.1,1.5-11.1,3.2c-4.9,2.9-6.8,7-4.9,10.9c0.1,0.2,0,0.4-0.1,0.4
			C108.9,205.2,108.8,205.2,108.8,205.2z"/>
		<path class="st96" d="M132.4,210.1c-0.2,0-0.3-0.1-0.3-0.3c0-0.2,0.1-0.4,0.3-0.4c2.2-0.4,4.2-1.1,5.8-2c3.4-2,4.8-4.8,3.8-7.4
			c-0.1-0.2,0-0.4,0.2-0.4c0.2-0.1,0.4,0,0.4,0.2c1.2,3-0.4,6.1-4.1,8.3C136.7,208.9,134.7,209.7,132.4,210.1
			C132.4,210.1,132.4,210.1,132.4,210.1z"/>
		<path class="st96" d="M113.8,204.3c-0.1,0-0.2-0.1-0.3-0.2c-1.5-3.1,0-6.5,3.9-8.7c2.1-1.2,4.8-2,7.7-2.4c0.2,0,0.3,0.1,0.4,0.3
			c0,0.2-0.1,0.3-0.3,0.4c-2.8,0.3-5.4,1.1-7.5,2.3c-3.6,2.1-5,5.1-3.6,7.9c0.1,0.2,0,0.4-0.2,0.4
			C113.9,204.3,113.8,204.3,113.8,204.3z"/>
		<g>
			<path class="st94" d="M141.8,167.9c0.3,1.7-0.5,3.5-2.2,5c-0.5,0.5-1.1,0.9-1.8,1.3c-5.4,3.1-14.3,3.1-19.7,0
				c-3-1.7-4.4-4.1-4-6.4h0l0.1-0.4c0.1-0.3,0.1-0.5,0.3-0.8v0c1.1-3.6,3.6-6.5,6.8-8.2c2-1.1,4.3-1.7,6.7-1.7h0.1
				c3.1,0,6,1,8.4,2.7c2.4,1.7,4.2,4.2,5.1,7.2c0.1,0.3,0.2,0.5,0.3,0.8L141.8,167.9L141.8,167.9z"/>
		</g>
		<g>
			<path class="st95" d="M141.7,167.9c0.3,1.8-0.5,3.7-2.2,5.3c-5.4,3-13.8,2.9-19-0.3c-3-1.8-4.3-4.3-4-6.7h0l0.1-0.4
				c0.1-0.3,0.1-0.5,0.2-0.8c0.8-2.6,2.4-4.9,4.4-6.5c2-1.1,4.3-1.7,6.7-1.7h0.1c3.1,0,6,1,8.4,2.7c2.4,1.7,4.2,4.2,5.1,7.2
				c0.1,0.3,0.2,0.5,0.3,0.8L141.7,167.9L141.7,167.9z"/>
		</g>
		<g>
			<path class="st94" d="M138,137.6v-2.7h-1.5c-0.4-0.4-0.8-0.7-1.4-1c-3.9-2.2-10.1-2.2-14,0c-0.5,0.3-1,0.6-1.4,1h-1.5v2.7
				c0,0.2,0,0.5,0,0.7v0l0,0c0.1,1.3,1.1,2.7,2.9,3.7c3.9,2.2,10.1,2.2,14,0C137.3,140.8,138.2,139.2,138,137.6z"/>
			<ellipse class="st95" cx="128.2" cy="134.6" rx="9.9" ry="5.7"/>
		</g>
		<g>
			<path class="st94" d="M195.1,170.2v-2.7h-1.5c-0.4-0.4-0.8-0.7-1.4-1c-3.9-2.2-10.1-2.2-14,0c-0.5,0.3-1,0.6-1.4,1h-1.5v2.7
				c0,0.2,0,0.5,0,0.7v0l0,0c0.1,1.3,1.1,2.7,2.9,3.7c3.9,2.2,10.1,2.2,14,0C194.3,173.4,195.2,171.8,195.1,170.2z"/>
			<ellipse class="st95" cx="185.2" cy="167.3" rx="9.9" ry="5.7"/>
		</g>
		<g>
			<path class="st94" d="M138,203.1v-2.7h-1.5c-0.4-0.4-0.8-0.7-1.4-1c-3.9-2.2-10.1-2.2-14,0c-0.5,0.3-1,0.6-1.4,1h-1.5v2.7
				c0,0.2,0,0.5,0,0.7v0l0,0c0.1,1.3,1.1,2.7,2.9,3.7c3.9,2.2,10.1,2.2,14,0C137.3,206.2,138.2,204.6,138,203.1z"/>
			<ellipse class="st95" cx="128.2" cy="199.9" rx="9.9" ry="5.7"/>
		</g>
		
			<ellipse transform="matrix(0.6011 -0.7992 0.7992 0.6011 -79.6591 175.0092)" class="st94" cx="135.5" cy="167.3" rx="5.6" ry="3.1"/>
		
			<ellipse transform="matrix(0.6011 -0.7992 0.7992 0.6011 -79.794 174.74)" class="st92" cx="135.1" cy="167.3" rx="3.4" ry="1.9"/>
		
			<rect x="136.5" y="158.6" transform="matrix(0.5772 -0.8166 0.8166 0.5772 -73.9414 179.686)" class="st94" width="0.2" height="5.3"/>
		
			<rect x="129.5" y="167.2" transform="matrix(0.5772 -0.8166 0.8166 0.5772 -83.8963 177.672)" class="st94" width="0.2" height="5.3"/>
	</g>
</g>
</svg>
