<?xml version="1.0" encoding="utf-8"?>
<!-- Generator: Adobe Illustrator 24.0.1, SVG Export Plug-In . SVG Version: 6.00 Build 0)  -->
<svg version="1.1" id="Layer_1" xmlns="http://www.w3.org/2000/svg" xmlns:xlink="http://www.w3.org/1999/xlink" x="0px" y="0px"
	 viewBox="0 0 256 360" style="enable-background:new 0 0 256 360;" xml:space="preserve">
<style type="text/css">
	.st0{fill:#DAEEF7;}
	.st1{fill:url(#SVGID_1_);stroke:url(#SVGID_2_);stroke-width:1.0893;stroke-miterlimit:10;}
	.st2{fill:url(#SVGID_3_);stroke:url(#SVGID_4_);stroke-width:1.0893;stroke-miterlimit:10;}
	.st3{fill:url(#SVGID_5_);stroke:url(#SVGID_6_);stroke-width:1.0893;stroke-miterlimit:10;}
	.st4{fill:url(#SVGID_7_);}
	.st5{fill:none;stroke:url(#SVGID_8_);stroke-width:1.0893;stroke-miterlimit:10;}
	.st6{fill:#090909;stroke:#000000;stroke-width:1.9479;stroke-miterlimit:10;}
	.st7{clip-path:url(#SVGID_10_);fill:#FFFFFF;}
	.st8{clip-path:url(#SVGID_10_);}
	.st9{opacity:0.43;fill:url(#SVGID_11_);}
	.st10{fill:none;stroke:#BBBBBB;stroke-width:0.5673;stroke-miterlimit:10;}
	.st11{clip-path:url(#SVGID_13_);fill:#373737;}
	.st12{clip-path:url(#SVGID_13_);}
	.st13{fill:#FFFFFF;}
	.st14{fill:#BBBBBB;}
	.st15{clip-path:url(#SVGID_15_);fill:#373737;}
	.st16{clip-path:url(#SVGID_15_);}
	.st17{clip-path:url(#SVGID_10_);fill:url(#SVGID_16_);}
	.st18{fill:#FF653D;}
	.st19{fill:none;stroke:#373737;stroke-width:0.8146;stroke-linejoin:round;stroke-miterlimit:10;}
	.st20{fill:#373737;stroke:#373737;stroke-width:0.8339;stroke-linejoin:round;stroke-miterlimit:10;}
	.st21{fill:#373737;}
	.st22{opacity:0.26;}
	.st23{opacity:0.61;fill:#BBBBBB;}
	.st24{opacity:0.26;fill:#BBBBBB;}
	.st25{fill:url(#SVGID_17_);}
	.st26{opacity:0.75;clip-path:url(#SVGID_19_);}
	.st27{fill-rule:evenodd;clip-rule:evenodd;fill:#FFC6C6;}
	.st28{clip-path:url(#SVGID_19_);}
	.st29{fill:#FF29A1;}
	.st30{fill:#006164;}
	.st31{fill:#FA5627;}
	.st32{fill:none;}
	.st33{fill-rule:evenodd;clip-rule:evenodd;fill:#FF653D;}
	.st34{fill:#004D50;}
	.st35{fill:url(#SVGID_20_);}
	.st36{fill:url(#SVGID_21_);stroke:url(#SVGID_22_);stroke-width:1.0893;stroke-miterlimit:10;}
	.st37{fill:url(#SVGID_23_);stroke:url(#SVGID_24_);stroke-width:1.0893;stroke-miterlimit:10;}
	.st38{fill:url(#SVGID_25_);stroke:url(#SVGID_26_);stroke-width:1.0893;stroke-miterlimit:10;}
	.st39{fill:url(#SVGID_27_);}
	.st40{fill:none;stroke:url(#SVGID_28_);stroke-width:1.0893;stroke-miterlimit:10;}
	.st41{clip-path:url(#SVGID_30_);fill:#FFFFFF;}
	.st42{clip-path:url(#SVGID_30_);}
	.st43{opacity:0.43;fill:url(#SVGID_31_);}
	.st44{clip-path:url(#SVGID_33_);fill:#373737;}
	.st45{clip-path:url(#SVGID_33_);}
	.st46{clip-path:url(#SVGID_35_);fill:#373737;}
	.st47{clip-path:url(#SVGID_35_);}
	.st48{clip-path:url(#SVGID_30_);fill:url(#SVGID_36_);}
	.st49{fill:url(#SVGID_37_);}
	.st50{opacity:0.75;clip-path:url(#SVGID_39_);}
	.st51{clip-path:url(#SVGID_39_);}
	.st52{fill:#FFB000;}
	.st53{fill:#150035;}
	.st54{fill:#DADFE3;}
	.st55{fill:#07085B;}
	.st56{opacity:0.62;fill:#FFFFFF;}
	.st57{fill:#FF5B7E;}
	.st58{fill:#02CCC0;}
	.st59{fill:#FEB546;}
	.st60{fill:#FFC0BB;}
	.st61{fill:#1E5AA8;}
	.st62{fill:#3478CF;}
	.st63{opacity:0.6;fill:#FC8D84;}
	.st64{fill:#333333;}
	.st65{fill:#F99893;}
	.st66{font-family:'MyriadPro-Regular';}
	.st67{font-size:6.6815px;}
</style>
<rect class="st0" width="256" height="360"/>
<g>
	<polygon class="st54" points="108.7,317.7 101,360.1 139.4,360.1 122.9,315.9 	"/>
	<path class="st55" d="M92,155.1c-6.1,14.6,4.3,20-8,31.7c-12.3,11.7-11.2,30.1,13.2,33.1c24.4,3.1,48-3.3,60.3-6
		c12.3-2.7,7.7-23.9-0.5-34.1c-8.2-10.2-0.4-23.7-12.1-31.9C131.5,140.1,92,155.1,92,155.1z"/>
	<g>
		<path class="st56" d="M202.7,142.8c-16.5,0.6-29.6,11.3-29.6,24.1l-15.5,3.9l16.8,3.1c3.9,10,16,16.9,30,16.4
			c16.8-0.6,30.1-11.7,29.6-24.8C233.6,152.4,219.5,142.2,202.7,142.8z"/>
		<path class="st57" d="M212.1,196.4c0,0,0.2,1.8,1.6,1.9c-1.4,0.1-1.6,1.9-1.6,1.9s-0.2-1.8-1.6-1.9
			C212,198.1,212.1,196.4,212.1,196.4z"/>
		<path class="st58" d="M222.2,136.5c0,0,0.3,3.1,2.8,3.4c-2.5,0.2-2.8,3.4-2.8,3.4s-0.3-3.1-2.8-3.4
			C221.9,139.7,222.2,136.5,222.2,136.5z"/>
		<path class="st59" d="M186.7,144.8c0,0,0.2,2.2,1.9,2.3c-1.7,0.1-1.9,2.3-1.9,2.3s-0.2-2.2-1.9-2.3
			C186.5,147,186.7,144.8,186.7,144.8z"/>
		<path class="st55" d="M223.8,179.8c0,0,0.4,4.3,3.8,4.6c-3.4,0.3-3.8,4.6-3.8,4.6s-0.4-4.3-3.8-4.6
			C223.4,184.1,223.8,179.8,223.8,179.8z"/>
	</g>
	<path class="st60" d="M130,148.7c0.5-0.3,5.2-1.4,6.1-1c0.9,0.3,2.9,3.1,3.2,4.1c0.2,1.1,1.3,0.3,0.3,2.9c-1,2.6,2.1,6.1-2.8,2.8
		c-4.8-3.3-6.2-2.5-6.5-5C130.1,150,130,148.7,130,148.7z"/>
	<path class="st61" d="M114.6,360.1l2.6-31.2c0,0-21.6-19.2-32.4-32.6c-0.3,13.6,0.5,38.1,1.7,63.7H114.6z"/>
	<path class="st62" d="M125.5,360.1h32l-5.8-50.7l-12.8-11c0,0-52.4-26.3-54,5.1c-0.1,1.5,4.1-4.1,4.1-2.2
		c16.8,25.1,28.3,29.2,28.3,29.2L125.5,360.1z"/>
	<path class="st60" d="M112.2,208.2c0-0.1-0.1-0.1-0.1-0.2l0.4-14.4l16.1,3.5l1.3,11.2C129.9,208.3,119.4,218.3,112.2,208.2z"/>
	<path class="st63" d="M112.2,203.7l0.3-10.1l16.3,5.3l0.4,3.8C125.6,204,118.7,205.7,112.2,203.7z"/>
	<path class="st57" d="M149.9,232.7l-7.8-8.9c0,0-3.2-9.2-3.2-10.1c0-0.8-4.6-7.3-4.6-7.3L131,207c0,0-16.1,1.4-16.8,1.5
		c-0.7,0.1-8.2-2-8.2-2s-20.1,2.6-27.3,19.1c-8.9,20.3-5,57.6,7.2,46.7c0,0-1.4,28.5,2.2,33c0,0,25.7,5,58.7,0.8c0,0,3-0.3,5.1-9.2
		C154,288,149.9,232.7,149.9,232.7z"/>
	<g>
		<path class="st13" d="M117.2,206.4c-1.6,0.1-2.7,0.2-2.9,0.3c-0.8,0.1-9.2-2.1-9.2-2.1s-22.6,2.8-30.7,20.8
			c-10,22-5.6,62.6,8.1,50.8c0,0-4.8,65.6-5.1,84c0,0,7.4,0,28.1,0C106.9,345.8,113.1,255,117.2,206.4z"/>
		<path class="st13" d="M154.5,233l-8.8-9.7c0,0-3.6-10-3.6-10.9c0-0.9-5.2-7.9-5.2-7.9l-3.6,0.6c0,0-4.9,0.4-10.4,0.9
			c0,0,3.3,87,8.8,154.2c11.8,0,16.6,0,29.7,0c0,0-7.2-47.6-4.7-57.3C159,293.1,154.5,233,154.5,233z"/>
	</g>
	<path class="st60" d="M40.8,210.9c0.1,0.5-0.4,0.9-0.9,0.7c-3.6-1.5-14.8-6.1-15.4-5.2c-0.7,1,9.2,5.3,9.2,6.4
		c-0.1,1.1-9.7-3.4-10.2-2.2c-0.6,1.2,8.3,5,8.2,5.5c-0.1,0.6-9-2.2-9.7-1.7c-0.7,0.5,8.4,4.5,8.5,5.3c0.1,0.7-7.1,0-7.3,0.6
		c-0.1,0.6-0.3,1,15.5,7.3c0,0,6,1.3,7.2,2.7l5.3-1.5l1.6-7.3c0,0-11.4-18.7-12.3-18.7C39.7,202.7,39.3,203.4,40.8,210.9z"/>
	<path class="st13" d="M84.1,288c-15.6,1-43.1-45.5-43.9-59.1c0,0,6.6-6,14-9.1c0,0,4.3,5.6,9.3,11.9c6.5,8.2,23.7,25.3,29,35.5
		C97.9,277.4,95.3,287.3,84.1,288z"/>
	<path class="st60" d="M102.3,185.3c-0.9-3.6-1.2-7.3-1.2-10.5c0-0.7,0-1.4-0.1-2.1c-0.2-2.8,0-5.7,0.9-8.7
		c2.8-9.5,11.2-16.1,20.4-16.1c12.5,0,21.8,11.4,20.7,24.3c1.4-0.7,2.9-0.7,4.1,0c2.4,1.4,3,5.1,1.3,8.4c-1.7,3.2-5,4.7-7.4,3.3
		c-0.3-0.2-0.6-0.4-0.9-0.7c-2,10.9-11.1,18.7-21.2,17.7c-4.9-0.5-9.2-3-12.3-6.8C104.6,192,103,188.2,102.3,185.3z"/>
	<path class="st64" d="M127.5,173.8c-0.1,1.1,0.7,2.1,1.9,2.3c1.1,0.1,2.2-0.7,2.3-1.8c0.1-1.1-0.7-2.1-1.9-2.3
		C128.6,171.8,127.6,172.6,127.5,173.8z"/>
	<path class="st64" d="M109.7,173.1c-0.1,1.1,0.7,2.1,1.9,2.3c1.1,0.1,2.2-0.7,2.3-1.8c0.1-1.1-0.7-2.1-1.9-2.3
		C110.8,171.2,109.8,172,109.7,173.1z"/>
	<path class="st55" d="M125.4,171.3c1-0.3,2-0.5,3-0.7c1-0.1,2-0.1,2.9,0c0.9,0.2,1.9,0.4,2.8,0.8l0.3,0.1c0.1,0.1,0.2,0.1,0.3,0.2
		l0.7,0.4c0.5,0.3,0.9,0.6,1.4,0.8c-0.3-0.5-0.5-0.9-0.9-1.4c-0.4-0.4-0.7-0.8-1.2-1.1c-0.9-0.7-2-1.1-3.1-1.3
		c-1.1-0.2-2.3,0-3.4,0.3C127.1,169.9,126.1,170.5,125.4,171.3z"/>
	<path class="st55" d="M117.1,170.9c-0.6-0.9-1.5-1.6-2.6-2.1c-1-0.5-2.2-0.7-3.3-0.7c-1.2,0.1-2.3,0.4-3.3,1
		c-0.5,0.3-0.9,0.7-1.3,1c-0.4,0.4-0.7,0.8-1,1.3c0.5-0.2,1-0.5,1.4-0.7l0.7-0.3c0.1,0,0.2-0.1,0.3-0.1l0.4-0.1
		c0.9-0.4,1.9-0.5,2.8-0.6c0.9-0.1,1.9,0,2.9,0.3C115.1,170.1,116.1,170.5,117.1,170.9z"/>
	<path class="st65" d="M120.3,173.7c0.2,1.2,0.3,2.3,0.2,3.5c0,0.6-0.1,1.2-0.3,1.8c-0.2,0.6-0.4,1.2-0.9,1.8
		c-0.5,0.5-0.8,0.7-0.9,1.1c-0.1,0.4,0,0.8,0.2,1.3c0.5,0.9,1.6,1.4,2.7,1.8c-1.2,0.1-2.5-0.2-3.4-1.3c-0.4-0.5-0.7-1.3-0.6-2
		c0.2-0.8,0.6-1.1,1.1-1.6c0.3-0.3,0.5-0.8,0.7-1.3c0.2-0.5,0.3-1.1,0.4-1.6C119.9,176,120.1,174.9,120.3,173.7z"/>
	<path class="st60" d="M162.7,333.3c0.2-0.5,0.8-0.5,1.1-0.1c2.2,3.2,9.1,13.1,10.1,12.7c1.1-0.4-4.9-9.5-4.2-10.4
		c0.7-0.9,6.3,8.1,7.4,7.4c1.1-0.7-4.3-8.7-3.9-9.1c0.4-0.4,6.4,6.7,7.3,6.7c0.9,0-4.6-8.4-4.3-9c0.3-0.7,6,3.9,6.4,3.4
		c0.4-0.4,0.8-0.7-9.1-14.5c0,0-4.3-4.4-4.6-6.1l-5.2-1.6l-5.3,5.3c0,0-0.5,21.9,0.2,22.4C159.1,340.8,159.8,340.4,162.7,333.3z"/>
	<path class="st13" d="M123.5,187.9h-7.6c-0.6,0-1,0.9-0.5,1.4c0.8,1,2.3,2.2,4.3,2.2c2,0,3.5-1.2,4.3-2.2
		C124.4,188.8,124.1,187.9,123.5,187.9z"/>
	<path class="st13" d="M134.5,212.7l2.3-8.3c0,0,15.2,0.3,29.8,16.1c14.6,15.8,14,89,7.3,100.9c0,0-8.8,1.5-16.7,0
		c0,0-0.6-7.1-1.4-15.1c-1-10.4-10.8-39-10.8-40.2c0-1.2-4.6-23.7-3.9-27.3C141.7,235.1,134.5,212.7,134.5,212.7z"/>
	<path class="st60" d="M105.1,204.6c0,0,14.9,10.1,31.7-0.2L105.1,204.6z"/>
	<path class="st62" d="M157.2,321.4c-0.4-3.4-0.2-2.1-0.6-5.6c-1.4-13.4-1.1-10.2-1.6-16.7c-1.1-14.9-2.3-29.2-3.9-44.5
		c-0.8-6.8-1.7-15.7-3.4-22.1c1,3.1,1.8,7.7,2.4,10.9c0.6,3.7,1.1,7.4,1.5,11.1c1.6,13.1,3.1,31.4,3.9,44.5c0.6,9.5,0,1,1.2,16.7
		C157,319.2,156.9,317.9,157.2,321.4z"/>
	<path class="st62" d="M82.2,287.9c0.3-2,0.2-1.2,0.4-3.3c1-8,0.8-6.1,1.1-10c0.7-8.9,1.5-17.5,2.6-26.6c0.5-4.1,1.2-9.4,2.6-13.2
		c-0.9,1.9-1.5,4.6-1.9,6.6c-0.5,2.2-0.8,4.4-1.2,6.6c-1.2,7.8-2.2,18.8-2.6,26.6c-0.3,5.7,0,0.6-0.8,10
		C82.3,286.6,82.3,285.8,82.2,287.9z"/>
	<path class="st13" d="M101.1,174.7c10.3,6.1,37.1,3.1,40.9,1.7c-10.8,9-4.4,14-4.4,14c-3.8,7.4-10.8,11.2-17.9,10.9
		c-7.1-0.3-13-5.7-15.4-11C108.4,187.9,101.1,174.7,101.1,174.7z"/>
	<path class="st55" d="M144.8,147.8C144.9,147.8,144.9,147.8,144.8,147.8c4.5,0,3.9-1.5,3.9-1.5c-0.7-2.5-6.8-2.7-6.8-2.7
		s1.8-1.1,3.2-2.7c1.4-1.6-0.2-2.6-0.2-2.6c-3-1.5-5.3,1.2-6.4,2.9c-3-4.4-9.4-11.4-27.6-4.8c-18.2,6.6-21.3,21.7-19,27.4
		c1.7,4.1,3.9,8.3,5.4,13.3c0.2,0.8,1.9,11.3,2.3,10.6c4.7-10.5-1.9-21.9,16.9-25c19.2-3.1,21.1-10.3,21.1-10.3s-1.5,7.7,1.6,15.7
		c2.6,6.6-2.5,6.8-0.6,14c1.3,4.9-1.7,10.5-1.7,11.9c0,0.7,9.7-2.9,10-3.5C150.4,185,156.1,158.2,144.8,147.8z"/>
</g>
<text transform="matrix(1 0 0 1 184.4277 166.9063)"><tspan x="0" y="0" class="st55 st66 st67">Hi! How can I  </tspan><tspan x="5.3" y="8" class="st55 st66 st67">help you ?</tspan></text>
</svg>
