<svg id="Layer_1" data-name="Layer 1" xmlns="http://www.w3.org/2000/svg" viewBox="0 0 480.18 480.6"><defs><style>.cls-1{fill:#2f3a49;}</style></defs><title>drone</title><path class="cls-1" d="M480,260.8V232c0-12.8-5.6-24-16-32V184a23.3,23.3,0,0,0-16-22.4V144h40V128H392v16h40v17.6A23.3,23.3,0,0,0,416,184v16c-10.4,7.2-16,19.2-16,32v24H382.4l-12-53.6A24,24,0,0,0,347.2,184h-4.8l-8.8-33.6c-4.8-17.6-20.8-30.4-39.2-30.4H216c-18.4,0-34.4,12.8-39.2,30.4L169.6,184h-4.8a24,24,0,0,0-23.2,18.4l-12,53.6H112V232c0-12.8-5.6-24-16-32V184a23.3,23.3,0,0,0-16-22.4V144h40V128H24v16H64v17.6A23.3,23.3,0,0,0,48,184v16c-10.4,7.2-16,19.2-16,32v28.8c-15.2,8.8-20.8,28-12,43.2a32.27,32.27,0,0,0,28,16h90.4a7.56,7.56,0,0,1,8,8,11.37,11.37,0,0,1-1.6,4.8L134.4,348a43,43,0,0,0-6.4,22.4v98.4a28,28,0,0,0,56,0V369.6a27,27,0,0,1,4-13.6l21.6-32.8A7.28,7.28,0,0,1,216,320h79.2c2.4,0,4.8,1.6,6.4,3.2L323.2,356a27,27,0,0,1,4,13.6V468a28,28,0,0,0,56,0V369.6a43,43,0,0,0-6.4-22.4L366.4,332c-2.4-4-1.6-8.8,2.4-11.2a11.37,11.37,0,0,1,4.8-1.6H464a32.09,32.09,0,0,0,32-32c0-10.4-6.4-20.8-16-26.4ZM432,184a8,8,0,0,1,16,0v8.8a53.63,53.63,0,0,0-16,0Zm-16,48a24,24,0,0,1,48,0v24H416ZM193.6,154.4A24,24,0,0,1,216.8,136h78.4c11.2,0,20.8,7.2,23.2,18.4l7.2,29.6H186.4Zm-36.8,52a7.79,7.79,0,0,1,8-6.4H347.2a7.79,7.79,0,0,1,8,6.4L366.4,256H145.6ZM64,184a7.56,7.56,0,0,1,8-8,7.56,7.56,0,0,1,8,8v8.8a53.63,53.63,0,0,0-16,0ZM48,232a23.57,23.57,0,0,1,24-24,23.57,23.57,0,0,1,24,24v24H48ZM156,480a12.3,12.3,0,0,1-12-12V376h24v92A12.3,12.3,0,0,1,156,480Zm200,0a12.3,12.3,0,0,1-12-12V376h24v92A12.3,12.3,0,0,1,356,480ZM464,304H373.6a23.57,23.57,0,0,0-24,24,27,27,0,0,0,4,13.6L364,356.8a6.11,6.11,0,0,1,1.6,4H342.4c-.8-4.8-3.2-8.8-5.6-12.8l-21.6-32.8a25,25,0,0,0-20-10.4H216a25,25,0,0,0-20,10.4L174.4,348a61.93,61.93,0,0,0-5.6,12.8H145.6c.8-1.6.8-2.4,1.6-4l10.4-15.2c7.2-11.2,4-25.6-6.4-33.6a27,27,0,0,0-13.6-4H48a16,16,0,0,1,0-32H464a16,16,0,0,1,0,32Z" transform="translate(-15.82 -16.2)"/><path class="cls-1" d="M341.6,50.4a124.23,124.23,0,0,0-171.2,0l11.2,12a107.26,107.26,0,0,1,148.8,0Z" transform="translate(-15.82 -16.2)"/><path class="cls-1" d="M317.6,74.4c-32-34.4-86.4-35.2-120.8-3.2l-3.2,3.2,11.2,11.2A70.53,70.53,0,0,1,304,83.2l2.4,2.4Z" transform="translate(-15.82 -16.2)"/><path class="cls-1" d="M217.6,99.2l12,10.4a32,32,0,0,1,44.8-7.2,30.55,30.55,0,0,1,7.2,7.2l12-10.4a48.21,48.21,0,0,0-67.2-8.8A45.63,45.63,0,0,0,217.6,99.2Z" transform="translate(-15.82 -16.2)"/></svg>