<svg id="Capa_1" data-name="Capa 1" xmlns="http://www.w3.org/2000/svg" viewBox="0 0 512 399.75"><defs><style>.cls-1,.cls-2{fill:#2f3a49;}.cls-2{font-size:56.76px;font-family:ArialMT, Arial;}.cls-3{letter-spacing:-0.06em;}</style></defs><title>seo</title><path class="cls-1" d="M422.25,253A25.68,25.68,0,0,0,460,275.64l6.88,6.88a7.5,7.5,0,1,0,10.61-10.61L470.6,265A25.68,25.68,0,1,0,422.25,253Zm36.36,0a10.6,10.6,0,0,1-2.85,7.24l-.31.28c-.1.1-.18.21-.28.31a10.67,10.67,0,1,1,3.44-7.83Z" transform="translate(0 -55.55)"/><path class="cls-1" d="M504.5,195H484.25a7.68,7.68,0,0,0-7.72,6.56A7.5,7.5,0,0,0,484,210h13v92H405V210h43.77a7.68,7.68,0,0,0,7.72-6.56,7.5,7.5,0,0,0-7.44-8.44h-1.7a202.61,202.61,0,0,0-69.19-98.07,199.14,199.14,0,0,0-121-41.37c-.86,0,0,0-2.42,0A200.83,200.83,0,0,0,153,83.94a7.67,7.67,0,0,0-3.51,8.93A7.56,7.56,0,0,0,160.54,97a185,185,0,0,1,45.07-19.41c-15.16,14.25-28.28,34.88-38.28,60.39H112.86a187.74,187.74,0,0,1,20.27-20.91,7.56,7.56,0,1,0-9.89-11.43A200.64,200.64,0,0,0,64.64,195H7.5A7.5,7.5,0,0,0,0,202.5v107A7.5,7.5,0,0,0,7.5,317H66.1a200.92,200.92,0,0,0,68.67,97.26,197.71,197.71,0,0,0,120,41c.39,0,.58,0,2.4,0a197.76,197.76,0,0,0,120-41A201,201,0,0,0,445.9,317h58.6a7.5,7.5,0,0,0,7.5-7.5v-107A7.5,7.5,0,0,0,504.5,195Zm-107,0H359.09a307.37,307.37,0,0,0-10.17-42h60.45a184.18,184.18,0,0,1,21.13,42Zm-230,0a283.43,283.43,0,0,1,10.81-42H249v42ZM264,153h70.71a284.69,284.69,0,0,1,10.8,42H264Zm0-81.2c25.17,4.1,48.3,28.73,64.23,66.2H264ZM397.89,138H344c-9.89-25.22-22.84-45.63-37.8-59.76A186.71,186.71,0,0,1,397.89,138ZM249,71.8V138H184.77C200.69,100.56,223.81,75.94,249,71.8ZM102.53,153h60.55a307.37,307.37,0,0,0-10.17,42H81.52A185.44,185.44,0,0,1,102.53,153ZM89.86,302H15V210H390v92H125.22a7.68,7.68,0,0,0-7.72,6.56,7.5,7.5,0,0,0,7.44,8.44h28a307.37,307.37,0,0,0,10.17,42H102.63A184.18,184.18,0,0,1,81.5,317h8.07a7.68,7.68,0,0,0,7.73-6.56A7.5,7.5,0,0,0,89.86,302ZM249,374v66.2c-25.17-4.1-48.3-28.73-64.23-66.2Zm-70.71-15a284.69,284.69,0,0,1-10.8-42H249v42ZM264,440.2V374h64.23C312.31,411.44,289.19,436.06,264,440.2Zm0-81.2V317h81.51a283.43,283.43,0,0,1-10.81,42ZM114.11,374H168c9.89,25.22,22.84,45.63,37.8,59.76A186.71,186.71,0,0,1,114.11,374Zm192.06,59.77c15-14.13,27.94-34.55,37.83-59.77h53.89A186.72,186.72,0,0,1,306.17,433.77ZM409.37,359H348.92a307.37,307.37,0,0,0,10.17-42H430.5A184.18,184.18,0,0,1,409.37,359Z" transform="translate(0 -55.55)"/><text class="cls-2" transform="translate(32.29 214.54)">ww<tspan class="cls-3" x="81.98" y="0">w</tspan><tspan x="119.83" y="0">.</tspan></text></svg>